<svg width="22" height="22" viewBox="0 0 22 22" fill="none" xmlns="http://www.w3.org/2000/svg">
    <path fill-rule="evenodd" clip-rule="evenodd" d="M5.762 1.024a4.738 4.738 0 0 0-4.738 4.738v10.476a4.738 4.738 0 0 0 4.738 4.738h10.476a4.738 4.738 0 0 0 4.738-4.738V5.762a4.738 4.738 0 0 0-4.738-4.738H5.762zM.024 5.762A5.738 5.738 0 0 1 5.762.024h10.476a5.738 5.738 0 0 1 5.738 5.738v10.476a5.738 5.738 0 0 1-5.738 5.738H5.762a5.738 5.738 0 0 1-5.738-5.738V5.762zm11.563 1.542a3.69 3.69 0 1 0-1.083 7.301 3.69 3.69 0 0 0 1.083-7.301zM8.885 6.79a4.69 4.69 0 1 1 4.32 8.327 4.69 4.69 0 0 1-4.32-8.327zm7.877-2.053a.5.5 0 0 0 0 1h.01a.5.5 0 1 0 0-1h-.01z" fill="#fff"/>
</svg>
