<svg width="50" height="40" viewBox="0 0 50 40" fill="none" xmlns="http://www.w3.org/2000/svg">
    <g clip-path="url(#6y1ikuu8ia)" fill="#0071C1">
        <path d="m33.133 21.751-4.42 3.536 12.493 9.993 4.42-3.535-12.493-9.994zM36.458 16.667c4.021 0 7.292-2.617 7.292-5.834 0-.966-.333-1.866-.854-2.666l-5.625 4.5-3.104-2.484 5.625-4.5A8.655 8.655 0 0 0 36.458 5c-4.02 0-7.291 2.617-7.291 5.833 0 .684.166 1.334.437 1.934L25.75 15.85l-3.708-2.967L23.52 11.7l-2.938-2.35L25 5.817c-2.438-1.95-6.396-1.95-8.833 0l-7.375 5.9 2.937 2.35H5.854L4.375 15.25l7.375 5.9 1.48-1.183V15.25l2.937 2.35 1.479-1.183 3.708 2.966-15.437 12.35 4.416 3.534 23.709-18.95c.75.216 1.562.35 2.416.35z"/>
    </g>
    <defs>
        <clipPath id="6y1ikuu8ia">
            <path fill="#fff" d="M0 0h50v40H0z"/>
        </clipPath>
    </defs>
</svg>
