<svg width="47" height="53" viewBox="0 0 47 53" fill="none" xmlns="http://www.w3.org/2000/svg">
    <g clip-path="url(#sd2ai0u5da)">
        <path d="M25.459 17.667c0-4.88-3.506-8.834-7.834-8.834-4.328 0-7.833 3.953-7.833 8.834 0 4.88 3.505 8.833 7.833 8.833s7.834-3.953 7.834-8.833zm-3.917 0c0 2.429-1.763 4.416-3.917 4.416s-3.916-1.987-3.916-4.416c0-2.43 1.762-4.417 3.916-4.417s3.917 1.987 3.917 4.417zM1.958 39.75v4.417h31.334V39.75c0-5.874-10.438-8.833-15.667-8.833-5.229 0-15.666 2.959-15.666 8.833zm3.917 0c.392-1.568 6.463-4.417 11.75-4.417 5.268 0 11.32 2.827 11.75 4.417h-23.5zm33.292-6.625V26.5h5.875v-4.417h-5.875v-6.625H35.25v6.625h-5.875V26.5h5.875v6.625h3.917z" fill="#0071C1"/>
    </g>
    <defs>
        <clipPath id="sd2ai0u5da">
            <path fill="#fff" d="M0 0h47v53H0z"/>
        </clipPath>
    </defs>
</svg>
