<svg width="56" height="71" viewBox="0 0 56 71" fill="none" xmlns="http://www.w3.org/2000/svg">
    <g clip-path="url(#nq1j10bh6a)">
        <path d="M9.333 38.458c2.567 0 4.667-2.662 4.667-5.916 0-3.255-2.1-5.917-4.667-5.917-2.566 0-4.666 2.663-4.666 5.917s2.1 5.916 4.666 5.916zm2.637 3.255c-.863-.178-1.727-.296-2.637-.296-2.31 0-4.503.62-6.486 1.715C1.12 44.08 0 46.21 0 48.605v4.645h10.5v-4.763a16.1 16.1 0 0 1 1.47-6.775zm34.697-3.255c2.566 0 4.666-2.662 4.666-5.916 0-3.255-2.1-5.917-4.666-5.917-2.567 0-4.667 2.663-4.667 5.917s2.1 5.916 4.667 5.916zM56 48.605c0-2.396-1.12-4.526-2.847-5.472-1.983-1.095-4.176-1.716-6.486-1.716-.91 0-1.774.118-2.637.295a16.1 16.1 0 0 1 1.47 6.775v4.763H56v-4.645zm-18.107-8.224c-2.73-1.538-6.09-2.662-9.893-2.662-3.803 0-7.163 1.154-9.893 2.662-2.52 1.42-4.107 4.615-4.107 8.106v4.763h28v-4.763c0-3.49-1.587-6.686-4.107-8.106zM18.83 47.333c.21-.68.303-1.153 2.123-2.04A15.716 15.716 0 0 1 28 43.634c2.403 0 4.783.533 7.047 1.657 1.796.888 1.89 1.36 2.123 2.041H18.83zM28 23.667c1.283 0 2.333 1.33 2.333 2.958 0 1.627-1.05 2.958-2.333 2.958-1.283 0-2.333-1.33-2.333-2.958 0-1.627 1.05-2.958 2.333-2.958zm0-5.917c-3.873 0-7 3.964-7 8.875 0 4.91 3.127 8.875 7 8.875s7-3.964 7-8.875c0-4.91-3.127-8.875-7-8.875z" fill="#0071C1"/>
    </g>
    <defs>
        <clipPath id="nq1j10bh6a">
            <path fill="#fff" d="M0 0h56v71H0z"/>
        </clipPath>
    </defs>
</svg>
