<svg width="47" height="48" viewBox="0 0 47 48" fill="none" xmlns="http://www.w3.org/2000/svg">
    <g clip-path="url(#q8a1km4mja)">
        <path d="M37.208 10h-3.916V6H13.708v4H9.792c-2.154 0-3.917 1.8-3.917 4v2c0 5.1 3.76 9.26 8.597 9.88 1.234 3 3.878 5.26 7.07 5.92V38h-7.834v4h19.584v-4h-7.834v-6.2c3.192-.66 5.836-2.92 7.07-5.92 4.837-.62 8.597-4.78 8.597-9.88v-2c0-2.2-1.763-4-3.917-4zM9.792 16v-2h3.916v7.64A6.014 6.014 0 0 1 9.792 16zM23.5 28c-3.231 0-5.875-2.7-5.875-6V10h11.75v12c0 3.3-2.644 6-5.875 6zm13.708-12c0 2.6-1.645 4.8-3.916 5.64V14h3.916v2z" fill="#0071C1"/>
    </g>
    <defs>
        <clipPath id="q8a1km4mja">
            <path fill="#fff" d="M0 0h47v48H0z"/>
        </clipPath>
    </defs>
</svg>
