<svg width="72" height="62" viewBox="0 0 72 62" fill="none" xmlns="http://www.w3.org/2000/svg">
    <g clip-path="url(#xmlpsvfc9a)" fill="#0071C1">
        <path d="m47.46 18.652-3 1.033a9.453 9.453 0 0 0-2.01-1.008L42 15.94c-.06-.258-.3-.439-.6-.439h-4.8c-.3 0-.54.18-.57.44l-.45 2.737c-.72.259-1.41.595-2.01 1.008l-3-1.033c-.27-.078-.6 0-.72.232l-2.4 3.565a.472.472 0 0 0 .15.672l2.55 1.705c-.09.31-.15.671-.15 1.007 0 .336.03.672.09 1.008l-2.52 1.705c-.24.155-.3.439-.15.646l2.4 3.59c.15.233.45.31.75.233l2.97-1.033c.63.413 1.29.749 2.04 1.007l.42 2.739c.06.258.3.439.6.439h4.8c.3 0 .54-.181.6-.44l.45-2.738a8.8 8.8 0 0 0 2.01-1.007l2.97 1.033c.27.103.6 0 .72-.233l2.4-3.59c.15-.233.09-.491-.15-.646l-2.49-1.705a5.717 5.717 0 0 0 0-2.015l2.55-1.705c.24-.155.3-.44.15-.672l-2.4-3.565c-.15-.232-.48-.31-.75-.232zM39 29.527c-2.37 0-4.29-1.653-4.29-3.694 0-2.04 1.92-3.694 4.29-3.694s4.29 1.654 4.29 3.694c0 2.041-1.92 3.695-4.29 3.695z"/>
        <path d="M59.82 23.405c-1.29-8.448-9.69-15.138-19.59-15.63-.42-.025-.81-.025-1.23-.025-10.59 0-19.29 6.742-20.76 15.5l-5.79 8.99c-1.23 1.705.21 3.927 2.55 3.927h3v5.166c0 2.842 2.7 5.167 6 5.167h3v7.75h21V42.16c7.86-3.23 13.05-10.54 11.82-18.755zm-15.15 14.39L42 38.878v10.204h-9v-7.75h-9V31h-3.9l3.99-6.02c.54-6.742 6.96-12.063 14.91-12.063 8.28 0 15 5.786 15 12.916 0 5.4-3.87 10.024-9.33 11.961z"/>
    </g>
    <defs>
        <clipPath id="xmlpsvfc9a">
            <path fill="#fff" d="M0 0h72v62H0z"/>
        </clipPath>
    </defs>
</svg>
