<svg width="51" height="59" viewBox="0 0 51 59" fill="none" xmlns="http://www.w3.org/2000/svg">
    <g clip-path="url(#yuqklh8yua)">
        <path d="M42.5 17.208H34v-4.916l-4.25-4.917h-8.5L17 12.292v4.916H8.5c-2.338 0-4.25 2.213-4.25 4.917v12.292c0 1.843.85 3.392 2.125 4.253v8.038c0 2.73 1.891 4.917 4.25 4.917h29.75c2.359 0 4.25-2.188 4.25-4.917v-8.063c1.254-.86 2.125-2.434 2.125-4.228V22.125c0-2.704-1.913-4.917-4.25-4.917zm-21.25-4.916h8.5v4.916h-8.5v-4.916zM8.5 22.125h34v12.292H31.875v-7.375h-12.75v7.375H8.5V22.125zm19.125 14.75h-4.25v-4.917h4.25v4.917zm12.75 9.833h-29.75v-7.375h8.5v2.459h12.75v-2.459h8.5v7.375z" fill="#0071C1"/>
    </g>
    <defs>
        <clipPath id="yuqklh8yua">
            <path fill="#fff" d="M0 0h51v59H0z"/>
        </clipPath>
    </defs>
</svg>
