<svg width="1971" height="1530" viewBox="0 0 1971 1530" fill="none" xmlns="http://www.w3.org/2000/svg">
    <g opacity=".3" fill="#0093FF" fill-opacity=".8">
        <path d="M1243.4 424.907a113.089 113.089 0 0 1 18.44 9.06c12.28 7.492 23.29 17.428 32.72 29.534 10.13 13.008 18.54 28.665 25 46.535 12.97 35.917 17.13 74.571 21.15 111.954.8 7.341 1.61 14.931 2.48 22.324 5.91 50.389 15.44 96.195 29.13 140.034 27.3 87.45 70.29 169.629 124.33 237.652 62.5 78.67 133.1 132.98 198.8 152.94 38.62 11.72 92.36 3.1 120.35-36.08 16.62-23.25 21.25-54.35 13.39-89.92l.24-.04c4.12 18.65 4.87 36.06 2.23 51.73-2.43 14.38-7.7 27.33-15.66 38.47-12.67 17.74-31.71 30.47-55.06 36.81-21.57 5.86-44.84 5.63-65.51-.65-34.39-10.44-69.99-30.15-105.81-58.58-32.48-25.77-63.81-57.55-93.13-94.45-54.07-68.067-97.09-150.292-124.41-237.794-13.69-43.868-23.22-89.699-29.14-140.116-.87-7.394-1.69-14.987-2.47-22.327-4.02-37.355-8.18-75.982-21.14-111.847-12.52-34.688-31.89-60.217-57.57-75.875-35.55-21.685-81.6-22.475-123.17-2.11-59.92 29.346-105.8 87.9-150.172 144.522-7.778 9.925-15.819 20.188-23.747 30.036-20.58 25.575-48.241 58.334-79.721 84.898-32.179 27.153-63.678 44.09-96.3 51.784-19.967 4.709-40.613 5.126-61.364 1.236-19.167-3.591-39.051-10.979-59.1-21.952-34.391-18.825-70.376-48.563-110.015-90.91-78.048-83.386-154.773-177.696-228.041-280.314-69.639-97.535-136.785-203.436-199.574-314.754l.195-.168C260.906 267.296 404.757 467.48 558.312 631.535c86.754 92.685 159.92 128.13 230.258 111.544 71.559-16.873 126.837-75.63 175.915-136.612 7.924-9.846 15.966-20.109 23.743-30.034 44.382-56.643 90.282-115.214 150.242-144.58 19.37-9.491 40.54-14.573 61.21-14.696 10.91-.066 21.61 1.256 31.79 3.926 4.06 1.054 8.04 2.334 11.93 3.824z"/>
        <path d="M1234.07 444.498c16.36 6.262 31.06 16.002 43.72 28.961 14.12 14.45 25.64 32.873 34.23 54.754.76 1.938 1.5 3.927 2.22 5.916 12.81 35.697 17.38 74.004 21.8 111.05.89 7.487 1.82 15.231 2.79 22.775 5.79 44.915 14.25 85.788 25.87 124.949 1.43 4.821 2.93 9.677 4.46 14.433 27.89 86.958 71.37 168.437 125.74 235.634 63.08 77.9 134 131.17 199.7 149.98 38.4 10.97 91.96 1.79 120.01-36.96 16.79-23.21 21.89-54.17 14.73-89.55l.25-.04c3.74 18.54 4.19 35.86 1.32 51.45-2.63 14.33-8.05 27.24-16.11 38.38-12.77 17.65-31.76 30.41-54.91 36.91-21.39 6-44.58 6.05-65.31.14-34.4-9.86-70.09-29.01-106.1-56.92-32.61-25.28-64.14-56.63-93.73-93.17-54.41-67.233-97.91-148.76-125.82-235.767-1.53-4.759-3.03-9.62-4.46-14.444-11.63-39.187-20.09-80.081-25.88-125.021-.98-7.544-1.9-15.288-2.8-22.778-4.42-37.024-8.98-75.302-21.78-110.95a208.12 208.12 0 0 0-2.21-5.904c-17.75-45.229-46.16-71.74-77.81-83.858l-.51-.198c.19.079.39.152.59.228zm-6.77-2.365c-29.64-9.354-61.62-6.674-90.06 4.632-61.38 24.578-109.78 80.303-156.589 134.192-1.928 2.222-3.855 4.438-5.781 6.654a2890.702 2890.702 0 0 1-14.354 16.4c-22.915 25.925-50.473 55.747-81.112 80.356-32.601 26.185-64.096 42.82-96.285 50.859-19.777 4.926-40.202 5.911-60.707 2.925-18.999-2.765-38.699-9.034-58.548-18.628-34.29-16.577-70.148-43.378-109.624-81.938-38.491-37.56-69.838-71.046-98.648-105.381-40.81-48.671-78.971-101.358-110.919-146.475C270.423 280.626 198.848 166.157 131.936 45.5l.194-.164c66.904 120.64 138.472 235.099 212.713 340.19 31.944 45.112 70.098 97.789 110.899 146.447 28.804 34.326 60.141 67.802 98.626 105.353 85.995 84.001 158.657 115.009 228.669 97.574 72.669-18.143 129.621-77.212 177.299-131.155a2595.893 2595.893 0 0 0 14.354-16.4c1.926-2.212 3.854-4.431 5.781-6.653 46.829-53.906 95.249-109.651 156.669-134.248 15.22-6.051 31.08-9.417 47.12-10.003 14.93-.539 29.38 1.374 43.04 5.692z"/>
        <path d="M1224.16 463.383c1.97.753 3.92 1.554 5.84 2.406 16.24 7.163 30.83 17.688 43.35 31.288 13.7 14.873 24.94 33.436 33.38 55.173.75 1.937 1.49 3.925 2.2 5.911 12.64 35.462 17.62 73.415 22.43 110.113 1.01 7.65 2.04 15.561 3.13 23.268 6.32 44.949 15.14 85.635 26.97 124.388 1.47 4.792 3 9.622 4.56 14.356 28.48 86.469 72.45 167.255 127.16 233.624 63.66 77.14 134.9 129.37 200.6 147.06 36.99 9.9 90.21 2.28 119.63-37.82 16.99-23.17 22.57-54.02 16.11-89.22l.25-.03c3.38 18.44 3.52 35.67.42 51.2-2.85 14.29-8.43 27.17-16.59 38.3-12.87 17.54-31.81 30.33-54.75 36.97-21.22 6.15-44.33 6.47-65.09.92-34.42-9.27-70.21-27.86-106.39-55.25-32.74-24.8-64.49-55.72-94.35-91.91-54.73-66.408-98.73-147.239-127.23-233.758a661.95 661.95 0 0 1-4.55-14.366c-11.84-38.774-20.67-79.486-26.99-124.458-1.09-7.71-2.12-15.622-3.13-23.271-4.81-36.678-9.78-74.604-22.41-110.024-.71-1.985-1.44-3.969-2.19-5.899-34.32-88.328-110.42-109.367-170.61-91.038-63.26 19.618-114.62 72.795-164.297 124.22l-.509.528a4352.636 4352.636 0 0 1-14.733 15.214c-52.186 53.54-108.977 107.353-178.776 125.764-19.592 5.144-39.799 6.695-60.054 4.611-18.84-1.939-38.353-7.09-57.996-15.312-34.248-14.332-69.979-38.206-109.236-72.985-41.265-36.479-71.944-67.237-99.477-99.733-39.222-46.361-76.215-100.135-108.853-147.58-72.622-106.036-142.83-221.048-208.673-341.835l.197-.16c65.836 120.775 136.038 235.774 208.651 341.8 32.633 47.437 69.62 101.202 108.83 147.548 27.521 32.486 58.192 63.233 99.442 99.701 85.095 75.387 157.252 101.961 227.086 83.629 69.753-18.399 126.521-72.189 178.687-125.71 4.946-5.076 9.921-10.231 14.732-15.214l.51-.529c24.754-25.626 50.349-52.124 77.259-74.246 30.24-24.86 58.73-41.222 87.12-50.023 29.67-9.035 60.79-8.16 88.34 2.379z"/>
        <path d="M134.847 60.844c64.795 121.072 133.653 236.767 204.659 343.87 3.011 4.513 6.026 9.043 9.052 13.588 30.774 46.239 62.596 94.052 97.741 135.265 34.104 39.911 69.834 70.012 100.289 94.192 84.041 66.951 155.713 89.146 225.559 69.857 71.715-19.936 131.818-75.614 180.11-120.355 2.899-2.685 5.793-5.379 8.693-8.073 2.139-1.991 4.281-3.98 6.423-5.966 27.501-25.51 52.457-48.177 79.357-67.278 30.74-21.819 59.52-35.396 88-41.508 26.69-5.729 54.28-3.605 79.09 5.892 4.52 1.731 8.95 3.703 13.26 5.922 15.76 8.099 29.92 19.329 42.1 33.378 13.29 15.33 24.24 34.069 32.55 55.7a206.39 206.39 0 0 1 2.18 5.916c12.47 35.26 17.86 72.882 23.06 109.264 1.12 7.836 2.28 15.943 3.48 23.841 6.86 45.048 16.05 85.602 28.09 123.981 1.5 4.775 3.06 9.583 4.66 14.296 29.08 86.09 73.56 166.294 128.61 231.934 64.26 76.49 135.84 127.76 201.55 144.37 44.93 11.24 93.97-4.65 119.24-38.63 17.22-23.16 23.28-53.95 17.54-89.04l.24-.02c3.01 18.37 2.85 35.54-.49 51.04-3.07 14.26-8.82 27.13-17.09 38.26-12.98 17.45-31.86 30.27-54.6 37.05-21.04 6.27-44.07 6.86-64.85 1.66-34.45-8.7-70.35-26.77-106.71-53.69-32.89-24.36-64.85-54.9-94.99-90.77-55.08-65.68-99.58-145.93-128.69-232.073a665.172 665.172 0 0 1-4.65-14.302c-12.05-38.402-21.25-78.977-28.11-124.046-1.2-7.902-2.36-16.005-3.48-23.844-5.2-36.361-10.58-73.96-23.04-109.178-.7-1.985-1.43-3.971-2.17-5.904-35.75-93.045-112.14-112.387-166.7-100.68-65.1 13.97-119.38 64.315-167.275 108.737-2.142 1.989-4.281 3.98-6.423 5.966a5858.825 5858.825 0 0 1-8.692 8.074c-27.566 25.537-54.727 50.211-83.913 71.356-33.563 24.318-65.056 40.358-96.277 49.04-19.42 5.364-39.408 7.478-59.412 6.279-18.695-1.117-38.027-5.166-57.462-12.032-34.274-12.109-69.889-33.095-108.876-64.151-30.464-24.191-66.211-54.304-100.333-94.238-35.162-41.23-66.99-89.055-97.771-135.303-3.023-4.544-6.04-9.075-9.052-13.588C268.311 297.791 199.447 182.083 134.646 61l.201-.156z"/>
        <path d="M136.17 65.427c64.993 123.859 132.53 240.428 200.742 346.465 4.082 6.344 8.252 12.87 12.286 19.18 28.894 45.188 58.769 91.916 92.506 131.212 33.7 39.151 70.051 66.877 101.169 88.832 82.799 58.689 154.008 76.553 224.095 56.219 66.869-19.553 122.768-66.102 176.826-111.118l5.936-4.941c4.688-3.905 9.536-7.939 14.312-11.889 54.068-44.636 107.738-85.318 169.868-92.809a144.444 144.444 0 0 1 45.21 1.682 143.011 143.011 0 0 1 45.34 17.287c15.28 9.039 29.02 20.98 40.85 35.494 12.88 15.795 23.56 34.734 31.74 56.285a264.2 264.2 0 0 1 2.15 5.931c12.31 35.086 18.09 72.407 23.67 108.501 1.25 8.054 2.54 16.383 3.87 24.504 7.41 45.215 16.97 85.691 29.22 123.741 1.53 4.755 3.13 9.553 4.76 14.256 29.7 85.832 74.69 165.561 130.12 230.581 64.89 75.96 136.83 126.37 202.58 141.94 44.62 10.43 93.5-5.78 118.84-39.41 17.47-23.18 24.03-53.95 18.99-89.01l.25-.01c2.64 18.34 2.16 35.49-1.42 50.96-3.29 14.27-9.22 27.16-17.62 38.3-13.09 17.37-31.91 30.19-54.45 37.11-20.85 6.39-43.79 7.24-64.6 2.38-34.48-8.17-70.5-25.74-107.06-52.24-33.04-23.95-65.23-54.16-95.66-89.79-55.46-65.05-100.47-144.835-130.19-230.716a685.141 685.141 0 0 1-4.77-14.264c-12.26-38.069-21.82-78.567-29.23-123.806-1.33-8.12-2.62-16.453-3.87-24.507-5.58-36.073-11.35-73.376-23.65-108.421-.69-1.98-1.42-3.971-2.15-5.919-34.82-91.772-106.96-117.271-162.85-110.532-62.09 7.483-115.74 48.151-169.778 92.766-4.776 3.95-9.624 7.984-14.312 11.889l-5.936 4.941c-26.537 22.095-53.973 44.947-83.212 64.778-33.115 22.459-63.759 37.629-93.681 46.38-19.261 5.589-39.041 8.262-58.787 7.942-18.565-.299-37.723-3.253-56.941-8.779-34.387-9.889-69.891-28.017-108.55-55.418-31.131-21.968-67.502-49.704-101.224-88.887-33.756-39.313-63.64-86.054-92.54-131.255a8682.198 8682.198 0 0 0-12.287-19.18C268.514 306.036 200.97 189.458 135.973 65.588l.197-.161z"/>
        <path d="M137.489 70.01c64.262 124.932 130.483 242.373 196.823 349.055 4.986 8.018 10.087 16.323 15.02 24.352 27.191 44.26 55.308 90.027 87.774 127.578 33.594 38.745 70.434 63.927 102.044 83.45 81.294 50.505 152.037 64.016 222.631 42.524 61.627-18.927 114.958-58.846 166.536-97.449 5.427-4.063 11.04-8.261 16.505-12.319a2195.99 2195.99 0 0 1 15.885-11.707c24.46-17.815 53.473-38.003 83.173-52.647 31.49-15.515 60.67-23.406 89.22-24.126 15.01-.378 30.01 1.514 44.59 5.629 15.65 4.417 30.51 11.322 44.16 20.526 14.79 9.972 28.11 22.626 39.6 37.612 12.46 16.25 22.86 35.387 30.91 56.874.72 1.945 1.45 3.945 2.14 5.941 12.13 34.885 18.29 71.883 24.25 107.664 1.38 8.299 2.81 16.879 4.28 25.246 7.97 45.398 17.9 85.793 30.35 123.501a681.22 681.22 0 0 0 4.87 14.215c30.31 85.573 75.83 164.841 131.62 229.231 65.52 75.42 137.82 124.96 203.6 139.48 37.44 8.14 88.57-1.12 118.41-40.14 17.73-23.2 24.82-53.98 20.48-89.02h.25c2.27 18.32 1.47 35.45-2.36 50.93-3.53 14.28-9.65 27.18-18.18 38.34-13.2 17.26-31.96 30.1-54.28 37.13-20.67 6.51-43.51 7.61-64.33 3.09-34.52-7.63-70.65-24.71-107.4-50.78-33.2-23.55-65.61-53.42-96.34-88.8-55.82-64.43-101.36-143.737-131.7-229.359-1.66-4.693-3.3-9.482-4.86-14.227-12.46-37.726-22.4-78.142-30.37-123.562-1.47-8.371-2.9-16.951-4.28-25.25-5.96-35.763-12.12-72.742-24.23-107.588-.7-1.992-1.42-3.988-2.14-5.931-28.91-77.179-88.35-122.196-159-120.416-63.98 1.61-120.19 38.792-172.288 76.736a2207.132 2207.132 0 0 0-15.882 11.708 5288.343 5288.343 0 0 0-16.505 12.319c-25.392 19.004-51.646 38.656-79.234 55.9-31.196 19.504-59.774 33.104-87.362 41.576-19.115 5.818-38.681 9.054-58.159 9.612-18.449.531-37.431-1.326-56.418-5.513-34.572-7.627-69.971-22.887-108.219-46.648-31.628-19.536-68.495-44.732-102.116-83.51-32.487-37.576-60.61-83.355-87.809-127.628-4.934-8.03-10.035-16.335-15.021-24.352-66.344-106.694-132.572-224.144-196.84-349.085l.202-.162z"/>
        <path d="M138.808 74.599c63.526 126.012 128.427 244.325 192.9 351.647 5.486 9.129 11.1 18.657 16.533 27.87 25.876 43.89 52.63 89.271 84.259 125.599 33.668 38.548 70.92 61.083 102.92 78.044 78.37 41.846 150.715 51.258 221.163 28.775 56.113-18.076 106.263-51.879 154.763-84.571 9.797-6.602 19.925-13.432 29.75-19.875a1385.439 1385.439 0 0 1 16.271-10.537c22.965-14.596 53.393-32.933 85.093-45.277 31.86-12.401 61.24-17.437 89.82-15.392 31.18 2.229 61.25 13.769 86.96 33.366 14.29 10.899 27.2 24.265 38.35 39.731 12.04 16.698 22.16 36.031 30.09 57.455.71 1.95 1.43 3.954 2.12 5.952 11.94 34.651 18.48 71.295 24.79 106.729 1.53 8.573 3.11 17.434 4.74 26.081 8.53 45.592 18.83 85.911 31.48 123.257 1.6 4.728 3.27 9.496 4.97 14.175 30.93 85.312 76.96 164.102 133.13 227.862 66.14 74.88 138.8 123.54 204.62 137.02 44.62 8.97 92-7.44 117.91-40.82 18.04-23.23 25.65-54.04 22.03-89.09l.25.01c1.89 18.31.78 35.45-3.31 50.92-3.77 14.3-10.09 27.23-18.78 38.41-13.3 17.14-32 29.97-54.08 37.11-20.48 6.62-43.22 7.97-64.02 3.79-34.57-7.08-70.82-23.67-107.76-49.3-33.35-23.15-65.99-52.69-97.01-87.81-56.19-63.8-102.26-142.63-133.21-227.997-1.7-4.68-3.37-9.451-4.97-14.183-12.65-37.367-22.95-77.705-31.49-123.32-1.63-8.646-3.21-17.511-4.74-26.083-6.31-35.416-12.84-72.043-24.78-106.66-.69-1.998-1.4-3.995-2.12-5.944-28.35-76.69-86.35-125.411-155.14-130.332-62.72-4.485-121.08 26.496-174.806 60.64a1392.288 1392.288 0 0 0-16.268 10.534c-9.823 6.445-19.953 13.271-29.747 19.874-48.511 32.698-98.67 66.51-154.809 84.592-18.986 6.06-38.343 9.856-57.534 11.29-18.354 1.368-37.16.616-55.894-2.237-34.842-5.305-70.133-17.685-107.889-37.844-32.022-16.973-69.306-39.524-103.009-78.115-31.651-36.353-58.416-81.751-84.301-125.657-5.432-9.214-11.047-18.739-16.533-27.868-64.477-107.329-129.385-225.652-192.915-351.672l.203-.149z"/>
        <path d="M140.12 79.181C202.902 206.28 266.482 325.46 329.094 433.415c5.753 9.92 11.648 20.348 17.346 30.432 24.782 43.842 50.405 89.178 81.444 124.577 33.863 38.488 71.473 58.307 103.799 72.619 76.151 34.028 148.014 38.925 219.689 14.967 50.285-16.968 96.57-45.163 141.333-72.427 15.39-9.377 29.929-18.232 44.653-26.673a952.019 952.019 0 0 1 16.656-9.358c33.676-18.415 61.326-30.45 87.016-37.872 32.24-9.314 61.82-11.485 90.43-6.634 11.1 1.884 22.03 4.912 32.63 9.019 18.8 7.279 36.59 17.941 52.53 31.591 28.86 24.703 51.19 58.311 66.36 99.891.71 1.968 1.42 3.974 2.1 5.966 11.75 34.382 18.64 70.627 25.31 105.682 1.69 8.881 3.43 18.061 5.22 27.025 9.11 45.804 19.78 86.042 32.61 123.012 1.64 4.714 3.34 9.469 5.08 14.135 31.54 85.043 78.1 163.363 134.63 226.483 66.77 74.34 139.8 122.12 205.64 134.55 44.91 8.29 90.99-7.97 117.38-41.45 18.35-23.27 26.52-54.11 23.63-89.21l.25.02c1.51 18.32.07 35.46-4.29 50.95-4.03 14.33-10.56 27.28-19.4 38.5-13.41 17-32.03 29.81-53.88 37.04-20.28 6.73-42.9 8.32-63.68 4.48-34.6-6.53-70.97-22.62-108.11-47.82-33.51-22.75-66.37-51.96-97.68-86.82-56.57-63.16-103.15-141.52-134.72-226.616a740.81 740.81 0 0 1-5.08-14.142c-12.83-36.99-23.51-77.249-32.62-123.071-1.79-8.964-3.54-18.148-5.23-27.028-6.66-35.037-13.54-71.268-25.29-105.62-.68-1.988-1.38-3.993-2.09-5.958-28.34-77.649-83.48-128.779-151.3-140.276-64.55-10.945-125.86 16.345-177.32 44.485a962.916 962.916 0 0 0-16.654 9.357c-14.72 8.441-29.259 17.294-44.65 26.67-44.769 27.272-91.065 55.47-141.368 72.443-18.883 6.312-38.028 10.676-56.906 12.972a273.503 273.503 0 0 1-55.371 1.057c-35.199-2.906-70.382-12.393-107.554-29.004-32.353-14.323-69.997-34.162-103.899-72.695-31.065-35.425-56.699-80.781-81.488-124.64-5.701-10.085-11.594-20.512-17.345-30.429-62.616-107.963-126.2-227.154-188.986-354.26l.201-.153z"/>
        <path d="M141.43 83.765c62.906 129.996 123.435 246.712 185.045 356.819 5.88 10.505 11.634 21.137 17.728 32.394 23.82 44.003 48.452 89.5 79.059 124.152 34.339 38.744 73.977 56.25 104.674 67.171 73.402 26.425 144.782 26.786 218.216 1.102 44.075-15.562 85.739-38.624 126.032-60.929 21.176-11.723 41.177-22.792 61.431-32.803a720.106 720.106 0 0 1 17.043-8.176c33.804-15.614 62.062-25.282 88.952-30.43 32.62-6.249 62.4-5.544 91.03 2.153 14.7 3.956 29.09 9.872 42.75 17.584 14.47 8.165 28.14 18.359 40.62 30.295 27.67 26.458 49.29 60.973 64.27 102.591.71 1.973 1.41 3.983 2.08 5.977 11.54 34.06 18.77 69.863 25.77 104.486 1.86 9.238 3.79 18.791 5.76 28.117 9.7 46.026 20.74 86.183 33.75 122.764 1.67 4.702 3.41 9.443 5.17 14.093 32.17 84.785 79.25 162.625 136.15 225.105 52.54 57.52 108.73 98.71 162.16 119.46 15.11 5.86 29.98 10.09 44.5 12.6 44.47 7.49 90.31-9 116.79-42.03 18.69-23.31 27.43-54.22 25.28-89.38l.25.02c1.13 18.35-.65 35.52-5.29 51.02-4.29 14.37-11.04 27.36-20.05 38.6-13.51 16.85-32.06 29.62-53.65 36.95-20.38 6.92-42.28 8.7-63.32 5.15-34.64-5.98-71.13-21.58-108.45-46.34-33.66-22.33-66.76-51.2-98.36-85.81-56.94-62.51-104.04-140.4-136.23-225.23a729.632 729.632 0 0 1-5.18-14.101c-13.01-36.6-24.05-76.776-33.76-122.824-1.97-9.325-3.9-18.879-5.77-28.12-6.99-34.609-14.21-70.398-25.75-104.43-.67-1.991-1.37-4.001-2.07-5.97-28.02-77.825-81.76-132.584-147.44-150.249-66.47-17.872-131.03 5.72-179.853 28.269a735.624 735.624 0 0 0-17.04 8.173c-20.251 10.007-40.25 21.08-61.423 32.8-40.298 22.307-81.968 45.376-126.059 60.942-37.808 13.223-74.155 19.445-111.124 19.024-35.654-.406-70.727-6.991-107.221-20.13-20.829-7.41-37.638-15.113-52.901-24.238-19.706-11.783-36.678-25.852-51.888-43.014-30.636-34.682-55.277-80.204-79.11-124.228-6.092-11.256-11.849-21.886-17.724-32.389-61.612-110.111-122.145-226.836-185.056-356.84l.209-.15z"/>
        <path d="M142.737 88.348c62.14 131.113 121.384 248.672 181.113 359.404 5.909 10.955 11.694 22.124 17.82 33.948 22.951 44.301 46.682 90.115 76.961 124.138 34.674 38.837 74.621 53.376 105.548 61.705 69.955 19.125 140.851 14.932 216.738-12.816 37.405-13.802 73.6-32.17 108.604-49.936 27.671-14.043 53.805-27.309 80.337-38.405a578.398 578.398 0 0 1 17.432-6.986c33.561-12.773 63.29-20.28 90.88-22.954 33.04-3.203 63.01.381 91.64 10.963 14.56 5.385 28.75 12.656 42.15 21.61 14.04 9.389 27.31 20.682 39.43 33.571 26.45 28.134 47.38 63.558 62.19 105.292.7 1.969 1.39 3.984 2.06 5.991 11.31 33.674 18.86 68.968 26.15 103.1 2.07 9.656 4.2 19.646 6.38 29.396 10.3 46.267 21.71 86.339 34.88 122.515 1.71 4.688 3.48 9.415 5.28 14.051 32.78 84.515 80.38 161.875 137.65 223.715 68.01 73.22 141.77 119.24 207.69 129.55 43.99 6.72 89.57-9.98 116.13-42.54 19.06-23.36 28.4-54.35 27.01-89.62l.25.04c.72 18.38-1.4 35.58-6.32 51.11-4.57 14.43-11.55 27.46-20.75 38.74-13.61 16.67-32.07 29.4-53.4 36.8-20.17 7-41.92 9.01-62.91 5.81-34.68-5.44-71.28-20.52-108.8-44.85-33.82-21.92-67.14-50.45-99.03-84.8-57.31-61.87-104.94-139.28-137.74-223.838-1.8-4.637-3.58-9.368-5.28-14.059-13.18-36.195-24.59-76.286-34.9-122.571-2.18-9.752-4.31-19.74-6.38-29.401-7.29-34.117-14.83-69.396-26.13-103.048a611.49 611.49 0 0 0-2.06-5.983c-28.25-79.557-79.24-136.477-143.58-160.255-52.21-19.3-110.17-15.487-182.386 11.993a585.66 585.66 0 0 0-17.427 6.985c-26.524 11.096-52.657 24.356-80.324 38.4-35.009 17.767-71.209 36.14-108.625 49.945-38.262 13.992-74.233 21.853-109.97 24.04-36.205 2.215-71.166-1.454-106.883-11.22-30.96-8.335-70.954-22.895-105.681-61.792-30.311-34.063-54.055-79.898-77.017-124.22-6.123-11.823-11.909-22.989-17.815-33.939-59.734-110.738-118.979-228.305-181.121-359.424l.206-.155z"/>
        <path d="M144.042 92.931c61.365 132.229 119.319 250.635 177.175 361.981 5.873 11.304 11.624 22.912 17.709 35.201 22.141 44.706 45.037 90.933 75.063 124.425 35.055 38.973 75.29 50.515 106.426 56.217 66.471 12.429 134.868 3.915 215.257-26.791 30.16-11.617 59.932-25.655 88.723-39.23 34.969-16.487 67.999-32.063 101.7-43.702a484.533 484.533 0 0 1 17.82-5.794c33.869-10.243 64.225-15.295 92.815-15.442 16.01-.083 31.64 1.43 46.45 4.495a204.863 204.863 0 0 1 45.8 15.303c29.6 13.967 56.45 34.999 79.78 62.509 25.21 29.712 45.43 66.044 60.11 107.993.69 1.984 1.38 4.003 2.04 6.002 11.06 33.208 18.89 67.909 26.46 101.464 2.29 10.158 4.66 20.662 7.07 30.925 10.92 46.521 22.7 86.513 36.02 122.263a718.77 718.77 0 0 0 5.38 14.01c33.4 84.24 81.52 161.12 139.17 222.31 68.63 72.66 142.75 117.78 208.7 127.04 70.65 9.65 145.87-38.42 144.2-132.92l.25.05c.42 23.64-3.74 45.14-12.38 63.91-7.88 17.15-19.32 31.72-33.98 43.3-13.63 10.77-29.42 18.51-46.9 22.99-16.64 4.26-34.33 5.3-51.17 3-34.72-4.87-71.44-19.46-109.15-43.34-33.98-21.52-67.52-49.71-99.71-83.79-57.67-61.23-105.83-138.14-139.25-222.44-1.83-4.62-3.64-9.334-5.39-14.015-13.32-35.765-25.11-75.778-36.03-122.319-2.41-10.263-4.78-20.766-7.07-30.928-7.57-33.544-15.39-68.231-26.44-101.419-.67-1.999-1.35-4.017-2.04-5.997-28.22-80.62-77.84-141.093-139.72-170.289-52.39-24.711-112.88-26.134-184.923-4.344a485.54 485.54 0 0 0-17.815 5.793c-33.693 11.635-66.717 27.21-101.681 43.695-28.794 13.578-58.569 27.618-88.734 39.237-80.422 30.72-148.85 39.234-215.357 26.801-20.922-3.831-38.01-9.114-53.779-16.633-20.159-9.61-37.426-22.585-52.793-39.671-30.061-33.528-52.97-79.784-75.123-124.514-6.086-12.286-11.834-23.893-17.705-35.193-57.861-111.355-115.816-229.765-177.184-362l.206-.143z"/>
        <path d="M145.341 97.514c60.584 133.36 117.252 252.607 173.237 364.56 5.793 11.584 11.46 23.56 17.458 36.244 21.376 45.183 43.479 91.907 73.306 124.921 35.871 39.585 78.418 47.898 107.3 50.708 78.361 7.897 152.037-16.202 213.771-40.824 22.196-8.918 44.451-18.856 65.976-28.465 43.177-19.277 83.959-37.486 125.931-49.038a429.116 429.116 0 0 1 18.208-4.6c34.249-7.793 65.242-10.378 94.742-7.897 33.45 2.811 64.69 12.452 92.87 28.662 28.95 16.654 55.19 40.16 77.99 69.866 23.91 31.156 43.44 68.397 58.03 110.692.68 1.984 1.36 4.009 2.02 6.016 10.77 32.626 18.83 66.614 26.64 99.485 2.55 10.772 5.2 21.908 7.89 32.793 11.7 47.446 23.5 86.212 37.15 122.003 1.77 4.67 3.62 9.36 5.49 13.97 34.02 83.97 82.66 160.36 140.68 220.9 69.25 72.1 143.74 116.32 209.73 124.52 71.06 8.58 144.82-39.07 145.26-133.67l.25.05c-.11 23.47-4.63 44.85-13.43 63.54-8.07 17.12-19.56 31.71-34.16 43.35-13.62 10.86-29.35 18.73-46.74 23.39-16.56 4.45-34.26 5.71-51.17 3.67-34.75-4.32-71.59-18.39-109.5-41.84-34.13-21.1-67.9-48.95-100.38-82.76-58.05-60.58-106.72-137.01-140.76-221.03a809.77 809.77 0 0 1-5.49-13.97c-13.66-35.813-25.46-74.601-37.17-122.066-2.69-10.885-5.33-22.024-7.89-32.796-7.8-32.861-15.86-66.838-26.62-99.447-.67-2.007-1.35-4.028-2.02-6.011-28.37-82.218-76.62-146.268-135.87-180.351-53.13-30.569-114.45-37.35-187.461-20.739a421.642 421.642 0 0 0-18.201 4.597c-41.961 11.55-82.737 29.754-125.907 49.031-21.524 9.609-43.782 19.549-65.981 28.469-41.512 16.554-75.722 27.399-107.654 34.132-37.59 7.923-72.328 10.116-106.201 6.702-20.657-2.009-38.391-6.198-54.218-12.81-20.378-8.513-37.796-20.937-53.246-37.988-29.867-33.056-51.983-79.808-73.37-125.02-5.999-12.681-11.663-24.656-17.455-36.232-55.989-111.958-112.657-231.212-173.245-364.577l.21-.14z"/>
        <path d="M146.637 102.101c59.797 134.491 115.173 254.581 169.296 367.135 5.676 11.802 11.225 24.095 17.1 37.111 20.641 45.723 41.984 93.003 71.652 125.589 36.319 39.781 79.13 44.837 108.175 45.177 71.705 1.066 138.564-24.236 212.284-54.906 13.299-5.57 26.775-11.418 39.809-17.075 50.127-21.755 101.956-44.25 153.585-54.978a376.333 376.333 0 0 1 18.6-3.398c34.216-5.323 66.742-5.43 96.682-.32 33.91 5.789 65.36 18.424 93.49 37.553 28.25 19.214 53.88 45.204 76.19 77.248 22.57 32.428 41.4 70.579 55.95 113.391.67 1.988 1.34 4.017 2 6.026 10.43 31.888 18.68 65.005 26.66 97.03 2.88 11.54 5.85 23.47 8.87 35.131 12.35 47.744 24.51 86.431 38.29 121.755 1.8 4.63 3.69 9.32 5.59 13.92 34.63 83.7 83.8 159.6 142.19 219.48 69.87 71.53 144.72 114.84 210.75 121.98 68.95 7.25 143.67-37.4 146.33-134.42l.25.07c-.64 23.3-5.51 44.55-14.48 63.15-8.25 17.1-19.8 31.7-34.35 43.41-26.82 21.59-62.45 31.84-97.73 28.13-34.79-3.76-71.75-17.33-109.85-40.33-34.28-20.69-68.28-48.19-101.06-81.73-58.42-59.92-107.61-135.86-142.27-219.61-1.9-4.6-3.79-9.29-5.6-13.93-13.78-35.34-25.95-74.043-38.29-121.805-3.03-11.664-6-23.595-8.88-35.135-7.97-32.017-16.22-65.127-26.65-96.999a524.29 524.29 0 0 0-2-6.022c-29.11-85.655-74.76-151.509-132-190.443-53-36.051-116.93-48.565-190.01-37.195a379.4 379.4 0 0 0-18.589 3.395c-51.61 10.725-103.434 33.215-153.55 54.968-13.034 5.658-26.51 11.505-39.812 17.074-32.27 13.426-69.774 28.633-106.495 39.208-38.412 11.059-73.038 16.198-105.861 15.71-20.669-.243-38.549-3.177-54.655-8.969-20.312-7.303-38.376-19.516-53.696-36.297-13.291-14.597-26.185-33.659-39.418-58.276-11.686-21.736-22.168-44.961-32.307-67.418-5.872-13.012-11.421-25.304-17.095-37.103-54.125-112.558-109.504-232.652-169.302-367.147l.207-.135z"/>
        <path d="M147.934 106.685c59.002 135.631 113.088 256.562 165.35 369.704 5.535 11.979 10.941 24.545 16.663 37.846 19.928 46.312 40.532 94.2 70.077 126.389 27.615 30.023 63.287 42.985 109.051 39.626 63.968-4.534 123.594-30.75 186.722-58.509 7.862-3.457 15.988-7.03 24.07-10.536 3.165-1.38 6.334-2.764 9.5-4.147 60.129-26.264 122.305-53.423 185.382-62.434a344.956 344.956 0 0 1 18.989-2.191c34.712-2.997 67.892-.546 98.612 7.288 34.4 8.773 66.06 24.408 94.11 46.469 27.53 21.652 52.55 50.134 74.39 84.654 21.16 33.459 39.28 72.517 53.87 116.096.66 1.991 1.33 4.024 1.99 6.039 10.02 30.912 18.36 62.92 26.44 93.874 3.27 12.536 6.65 25.5 10.09 38.175 13 48.062 25.53 86.672 39.41 121.492 1.85 4.63 3.77 9.29 5.7 13.88 35.26 83.42 84.95 158.83 143.71 218.05 70.5 70.94 145.71 113.36 211.78 119.43 67.83 6.07 142.55-39.24 147.4-135.18l.25.07c-1.17 23.14-6.39 44.26-15.53 62.77-8.44 17.08-20.05 31.71-34.53 43.46-26.75 21.72-62.31 32.37-97.57 29.21-34.83-3.2-71.9-16.25-110.2-38.8-34.44-20.27-68.67-47.43-101.73-80.7-58.79-59.27-108.52-134.71-143.79-218.18-1.93-4.58-3.85-9.26-5.7-13.89-13.89-34.84-26.42-73.457-39.44-121.537-3.43-12.675-6.81-25.642-10.09-38.178-8.07-30.946-16.42-62.948-26.43-93.848-.66-2.015-1.32-4.044-1.99-6.036-29.66-88.608-73.96-157.959-128.13-200.56-53.47-42.054-118.26-60.122-192.566-53.706a348.844 348.844 0 0 0-18.979 2.189c-63.055 9.005-125.22 36.159-185.336 62.422-3.169 1.384-6.335 2.767-9.5 4.146-8.082 3.507-16.208 7.08-24.069 10.534-63.142 27.763-122.784 53.985-186.781 58.522-20.676 1.519-38.698-.157-55.095-5.116-20.523-6.207-38.741-17.85-54.149-34.599-13.233-14.417-25.947-33.508-38.87-58.367-11.401-21.932-21.508-45.423-31.283-68.139-5.722-13.297-11.126-25.859-16.659-37.834-52.264-113.146-106.352-234.081-165.354-369.715l.215-.133z"/>
        <path d="M149.224 111.267c53.656 126.099 107.959 251.351 161.402 372.272 5.448 12.255 10.757 25.207 16.378 38.916 18.281 44.596 39.003 95.142 68.349 126.855 27.979 30.192 63.936 41.332 109.927 34.058 54.675-8.553 104.917-33.016 158.11-58.913 16.658-8.11 33.885-16.499 51.189-24.32 30.211-13.705 62.828-27.952 96.626-39.314 36.196-12.171 68.824-19.291 99.751-21.775a323.83 323.83 0 0 1 19.38-.981c35.201-.695 69.02 4.344 100.514 14.977 34.87 11.775 66.75 30.397 94.77 55.365 51.71 46.41 93.56 117.361 124.38 210.884.66 1.996 1.32 4.033 1.97 6.05 9.5 29.57 17.81 60.093 25.85 89.613 3.79 13.894 7.7 28.263 11.68 42.314 13.69 48.402 26.57 86.932 40.55 121.232 1.89 4.61 3.84 9.27 5.81 13.83 35.87 83.15 86.08 158.05 145.21 216.62 71.12 70.36 146.7 111.86 212.8 116.86 68.4 5.06 141.36-40.01 148.47-135.93l.25.08c-1.7 22.98-7.28 43.97-16.58 62.38-8.62 17.06-20.3 31.71-34.71 43.52-13.58 11.13-29.14 19.41-46.24 24.61-16.59 5.05-33.81 6.96-51.16 5.68-34.87-2.64-72.06-15.18-110.55-37.28-34.59-19.86-69.05-46.66-102.41-79.66-59.16-58.6-109.41-133.55-145.3-216.74a762.33 762.33 0 0 1-5.8-13.84c-13.99-34.32-26.88-72.86-40.58-121.281-3.98-14.055-7.89-28.423-11.67-42.32-8.04-29.517-16.36-60.036-25.85-89.595-.65-2.018-1.31-4.053-1.97-6.048-30.8-93.451-72.61-164.344-124.26-210.708-53.25-47.444-120.72-71.746-195.131-70.275-6.358.128-12.876.458-19.368.978-69.147 5.55-134.898 33.214-196.316 61.076-17.305 7.821-34.529 16.209-51.186 24.318-53.205 25.903-103.458 50.372-158.159 58.928-46.063 7.285-82.089-3.881-110.133-34.143-13.144-14.203-25.648-33.275-38.228-58.298-11.092-22.066-20.805-45.765-30.202-68.682-5.621-13.709-10.928-26.657-16.374-38.904-53.445-120.926-107.748-246.177-161.403-372.28l.214-.129z"/>
        <path d="M150.512 115.85a59410.013 59410.013 0 0 0 157.45 374.837c5.235 12.304 10.333 25.386 15.731 39.236 17.654 45.303 37.665 96.653 66.982 128.076 28.356 30.367 64.6 39.677 110.803 28.469 48.404-11.701 94.477-37.023 139.032-61.517 22.341-12.28 45.443-24.979 68.769-35.96 36.818-17.363 67.533-29.569 96.664-38.417 35.92-10.909 69.026-16.523 101.205-17.163a308.857 308.857 0 0 1 19.772.235c33.935 1.509 66.662 8.419 97.36 20.548 1.71.675 3.4 1.364 5.1 2.069 35.41 14.771 67.5 36.428 95.39 64.365 13.46 13.529 26.39 29.059 38.42 46.162 11.32 16.074 22.2 34.041 32.34 53.4 18.25 34.828 34.52 74.569 49.74 121.486.65 2.017 1.3 4.038 1.95 6.062 8.78 27.606 16.85 56.019 24.64 83.497 4.5 15.862 9.15 32.264 13.89 48.313 14.59 49.442 27.44 86.752 41.69 120.962 1.92 4.6 3.91 9.24 5.91 13.8 36.49 82.85 87.22 157.25 146.72 215.16 71.75 69.76 147.69 110.35 213.83 114.28 67.26 3.93 140.22-41.76 149.54-136.69l.25.09c-4.34 44.22-22.5 80.72-52.53 105.56-13.57 11.22-29.07 19.64-46.07 25.02-16.53 5.24-33.75 7.38-51.16 6.36-34.9-2.07-72.22-14.1-110.9-35.74-34.75-19.45-69.43-45.9-103.08-78.62-59.54-57.94-110.3-132.39-146.81-215.29-2.01-4.56-4-9.2-5.91-13.8-14.26-34.24-27.13-71.56-41.71-121.017-4.74-16.052-9.4-32.456-13.89-48.316-7.8-27.475-15.86-55.884-24.64-83.483-.65-2.024-1.3-4.043-1.95-6.058-32.34-99.697-71.72-171.947-120.4-220.881-67.44-67.565-144.728-84.553-197.689-86.905a308.427 308.427 0 0 0-19.759-.234c-74.011 1.474-144.584 30.468-197.797 55.562-23.322 10.976-46.423 23.675-68.761 35.953-44.565 24.496-90.647 49.829-139.074 61.533-20.675 5.016-38.983 5.879-55.968 2.633-20.946-4.001-39.469-14.493-55.053-31.184-13.129-14.072-25.492-33.237-37.799-58.59-10.841-22.339-20.209-46.373-29.267-69.619-5.396-13.846-10.492-26.925-15.725-39.221a59394.163 59394.163 0 0 1-157.452-374.838l.216-.125z"/>
        <path d="m151.797 120.433 153.495 377.394c5.012 12.325 9.888 25.507 15.049 39.46 17.033 46.046 36.34 98.234 65.646 129.385 28.34 30.121 65.914 37.811 111.679 22.856 43.996-14.375 85.519-40.221 125.675-65.217 26.175-16.293 53.241-33.138 80.624-46.554 82.301-40.322 152.058-55.762 219.527-48.594 27.989 2.976 55.188 9.667 81.148 19.95a310.575 310.575 0 0 1 23.25 10.335c35.98 17.79 68.29 42.485 96.03 73.395 25.71 28.65 48.27 63.653 68.95 107.01 16.52 34.621 31.66 74.094 47.66 124.224 8.44 26.457 16.45 53.641 24.19 79.929 17.52 59.494 35.63 121.004 60.1 178.524 37.54 88.22 90.88 166.88 154.26 227.46 72.36 69.17 148.66 108.84 214.85 111.69 64.08 2.77 138.55-39.07 150.61-137.44l.25.1c-5.39 43.97-23.99 80.36-53.77 105.21-26.93 22.48-61.4 34.01-97.06 32.47-34.94-1.51-72.37-13.01-111.25-34.2-34.9-19.02-69.81-45.12-103.76-77.57-31.36-29.97-60.47-64.61-86.52-102.95-26.26-38.66-49.08-80.59-67.82-124.63-24.48-57.54-42.6-119.07-60.13-178.579-7.74-26.285-15.74-53.466-24.18-79.918-23.34-73.144-57.68-165.508-116.53-231.079-67.48-75.198-146.149-97.837-200.258-103.588-67.435-7.168-137.161 8.267-219.43 48.576-27.371 13.41-54.434 30.256-80.606 46.544-40.165 24.999-81.699 50.851-125.717 65.234-45.843 14.982-83.497 7.266-111.91-22.934-13.12-13.948-25.35-33.22-37.388-58.925-10.595-22.627-19.619-47.017-28.343-70.602-5.161-13.952-10.036-27.127-15.046-39.448L151.578 120.558l.219-.125z"/>
        <path d="M153.639 150.294c38.158 102.183 71.331 185.963 104.392 263.654 16.046 37.735 32.558 75.157 49.077 111.229 4.996 10.911 9.877 22.347 15.044 34.457 12.984 30.433 26.412 61.902 43.002 87.844 8.905 13.948 17.753 24.9 27.048 33.481 28.516 26.486 64.966 30.575 108.335 12.151 22.443-9.508 43.319-22.15 60.781-33.262 18.486-11.764 36.956-25.485 54.82-38.753 25.674-19.073 52.223-38.794 80.072-53.76 16.951-9.151 33.932-16.612 50.474-22.176 33.095-11.131 67.98-17.329 103.686-18.422 22.05-.576 43.963 1.038 65.127 4.798a330.844 330.844 0 0 1 53.793 14.374c26.126 9.401 51.17 22.247 74.44 38.188 24.74 16.951 47.65 37.53 68.1 61.17 18.22 21.08 34.97 45.2 51.2 73.742 30.25 53.153 52.8 109.761 69.06 153.139 7.98 21.392 15.69 43.038 23.15 63.972 21.46 60.286 41.74 117.23 68.99 171.54 22.25 44.07 48.68 84.92 78.57 121.44 22.96 28.06 48.49 53.64 75.87 76.04 6.52 5.33 13.19 10.53 19.82 15.45 28.54 21.14 61.18 40.4 97 57.24 36.11 17.04 67.9 26.91 97.16 30.18 16.54 1.88 32.85 1.07 48.5-2.41 55.24-12.27 94.44-53.78 104.86-111.04l.3.16c-2.77 15.26-7.54 29.5-14.16 42.33-6.29 12.19-14.29 23.19-23.77 32.7-17.93 17.95-41.14 30.49-67.13 36.26-15.67 3.49-32.01 4.3-48.58 2.41-29.29-3.27-61.1-13.15-97.24-30.2-35.84-16.85-68.5-36.12-97.06-57.28a528.704 528.704 0 0 1-19.84-15.46c-27.4-22.41-52.94-48.02-75.93-76.1-29.9-36.54-56.36-77.43-78.62-121.53-27.27-54.34-47.55-111.297-69.02-171.599-7.45-20.933-15.16-42.576-23.14-63.963-16.26-43.359-38.79-99.94-69.02-153.06-16.22-28.512-32.95-52.608-51.16-73.663-40-46.265-87.91-79.66-142.384-99.255a330.743 330.743 0 0 0-53.75-14.36c-21.149-3.755-43.047-5.369-65.079-4.792-35.684 1.09-70.548 7.283-103.622 18.41-16.531 5.559-33.502 13.016-50.438 22.16-27.833 14.959-54.376 34.675-80.042 53.742-17.867 13.27-36.34 26.997-54.835 38.764-17.469 11.119-38.357 23.763-60.816 33.278-19.31 8.203-37.542 11.96-54.194 11.166-20.455-.974-38.769-8.844-54.429-23.389-9.323-8.609-18.196-19.591-27.123-33.571-16.615-25.981-30.051-57.47-43.046-87.924-5.165-12.105-10.045-23.542-15.037-34.445-16.524-36.076-33.038-73.503-49.086-111.245-33.063-77.698-66.237-161.485-104.4-263.677l.28-.133z"/>
        <path d="M155.481 180.162c34.414 101.051 67.675 187.327 101.685 263.755 16.581 37.321 33.986 73.76 51.733 108.304 4.709 9.166 9.316 18.581 14.194 28.546 14.611 29.846 29.718 60.706 47.795 84.989 9.123 12.297 18.111 21.873 27.486 29.28 35.894 28.365 76.918 16.545 105.016 1.637 19.902-10.511 38.504-23.897 57.387-37.837 16.529-12.202 32.35-26.082 49.099-40.774 24.859-21.81 50.566-44.363 78.637-60.805 16.668-9.841 33.749-17.323 50.769-22.237 31.705-9.159 65.692-12.669 103.902-10.737 21.384 1.084 43.044 4.326 64.377 9.642a356.108 356.108 0 0 1 52.903 17.793c25.451 10.843 49.926 25.009 72.756 42.103 23.98 17.954 46.37 39.332 66.57 63.538 17.7 21.205 34.36 45.478 50.94 74.205 30.11 52.117 54.81 106.555 72.96 148.159 6.71 15.401 13.29 30.828 19.66 45.752 25.35 59.429 49.29 115.565 80.28 167.015 23.16 38.46 50.04 73.78 79.9 104.99 22.59 23.61 47.03 44.19 74.72 62.92 6.39 4.32 12.92 8.5 19.39 12.44 28.45 17.26 59.28 31.51 96.62 48.34 26.91 12.22 62.26 27.05 97.13 33.29 16.5 3.02 32.73 3.48 48.24 1.37 54.6-7.41 94.91-41.55 107.83-91.31l.36.22c-3.43 13.2-8.73 25.39-15.77 36.25-6.7 10.35-15.02 19.54-24.71 27.34-18.42 14.81-41.8 24.49-67.61 28-15.54 2.11-31.8 1.65-48.34-1.37-34.9-6.25-70.28-21.09-97.2-33.32-37.36-16.84-68.19-31.09-96.66-48.36-6.48-3.94-13.01-8.13-19.41-12.45-27.71-18.75-52.18-39.35-74.8-62.99-29.88-31.23-56.79-66.59-79.97-105.08-31.02-51.49-54.97-107.645-80.32-167.097-6.37-14.92-12.95-30.347-19.67-45.745-18.14-41.589-42.83-96.007-72.92-148.097-16.56-28.697-33.2-52.944-50.88-74.124-39.71-47.595-86.54-83.096-139.163-105.515a355.62 355.62 0 0 0-52.853-17.774c-21.313-5.312-42.954-8.553-64.318-9.632-38.179-1.934-72.137 1.574-103.815 10.723-16.999 4.91-34.058 12.381-50.706 22.212-28.047 16.429-53.742 38.973-78.592 60.771-16.755 14.699-32.579 28.581-49.119 40.789-18.892 13.95-37.502 27.338-57.424 37.862-18.214 9.666-35.702 14.933-51.978 15.662-19.735.883-37.695-4.955-53.38-17.349-9.407-7.435-18.428-17.043-27.578-29.377-18.107-24.328-33.228-55.216-47.851-85.086-4.876-9.962-9.485-19.374-14.19-28.535-17.754-34.557-35.163-71.007-51.75-108.34-34.016-76.447-67.285-162.739-101.704-263.812l.342-.144z"/>
        <path d="M157.313 210.027c31.181 101.239 63.551 187.467 98.963 263.61 17.116 36.876 35.408 72.308 54.371 105.317 4.052 7.057 8.206 14.489 12.222 21.675 16.587 29.686 33.737 60.381 53.688 83.141 9.359 10.73 18.493 18.953 27.922 25.134 36.189 23.732 75.297 8.383 101.731-8.669 17.909-11.488 34.718-25.826 50.974-39.694l3.044-2.597c14.758-12.577 28.916-27.137 43.907-42.554 23.871-24.549 48.552-49.932 76.733-67.825 16.41-10.528 33.592-18.033 51.069-22.307 30.472-7.453 63.558-8.487 104.116-3.257 20.972 2.705 42.377 7.531 63.622 14.349a386.394 386.394 0 0 1 52.015 21.103c50.75 25.01 96.54 62.575 136.12 111.65 17.11 21.216 33.68 45.607 50.65 74.576 28.74 48.946 53.71 97.536 76.83 143.108 3.1 6.109 6.17 12.173 9.21 18.188 31.56 62.403 61.37 121.345 98.51 172.075 24.25 33.12 51.58 62.98 81.25 88.77 21.77 18.92 45.85 35.28 73.59 50.01 6.25 3.31 12.63 6.5 18.96 9.49 15.93 7.48 32.97 14.15 51.02 21.22 14.49 5.67 29.47 11.54 45.22 18.33 30.39 13.26 64.83 28.28 97.1 36.26 16.65 4.12 32.79 5.81 47.98 5.04 53.92-2.75 95.33-29.67 110.78-72.02l.4.31c-4.07 11.16-9.91 21.35-17.35 30.27-7.12 8.54-15.75 15.97-25.64 22.1-18.93 11.72-42.48 18.61-68.1 19.91-15.23.78-31.41-.92-48.09-5.05-32.3-7.99-66.76-23.02-97.16-36.28-15.73-6.78-30.72-12.66-45.21-18.33-18.04-7.07-35.09-13.74-51.04-21.23-6.33-2.99-12.72-6.18-18.98-9.5-27.77-14.74-51.88-31.12-73.68-50.08-29.7-25.81-57.07-55.71-81.34-88.86-37.18-50.78-67-109.748-98.57-172.178-3.04-6.016-6.11-12.077-9.21-18.188-23.11-45.565-48.08-94.141-76.81-143.071-16.95-28.936-33.5-53.305-50.59-74.493-39.53-49.014-85.27-86.527-135.948-111.506a385.985 385.985 0 0 0-51.958-21.078c-21.223-6.809-42.608-11.631-63.557-14.334-40.517-5.224-73.564-4.192-103.997 3.25-17.44 4.265-34.589 11.757-50.971 22.266-28.145 17.871-52.811 43.24-76.668 67.775-14.997 15.425-29.163 29.992-43.933 42.577l-3.044 2.597c-16.265 13.874-33.082 28.222-51.01 39.722-26.518 17.108-65.762 32.493-102.12 8.652-9.472-6.21-18.641-14.463-28.034-25.235-19.994-22.808-37.164-53.537-53.767-83.255-4.015-7.185-8.168-14.618-12.218-21.67-18.972-33.026-37.275-68.477-54.398-105.373-35.427-76.175-67.809-162.433-99-263.704l.396-.137z"/>
        <path d="M159 239.892c27.55 99.975 59.928 188.568 96.237 263.313 17.644 36.41 36.819 70.829 56.991 102.302 2.914 4.546 5.891 9.247 8.773 13.794 19.034 30.034 38.716 61.094 61.042 82.397 9.577 9.2 18.853 16.087 28.364 21.061 36.477 19.074 73.692.331 98.49-18.752 15.388-11.763 29.684-25.888 43.509-39.55 2.392-2.365 4.782-4.724 7.174-7.069 13.138-12.886 25.78-28.036 39.163-44.072 22.754-27.263 46.283-55.452 74.445-74.864 16.539-11.398 33.343-18.721 51.378-22.391 37.722-7.677 73.909-2.282 104.33 4.003 20.576 4.254 41.728 10.614 62.871 18.917a422.198 422.198 0 0 1 51.127 24.31c48.693 27.288 93.416 66.798 132.916 117.435 16.44 21.065 32.92 45.559 50.37 74.88 17.64 29.566 34 57.788 49.83 85.083 10.75 18.551 20.91 36.073 30.85 52.958 37.6 63.828 72.24 120.533 115.47 168.093 25.33 27.85 53.12 52.36 82.61 72.84 21.14 14.68 44.17 26.55 72.49 37.36a458.99 458.99 0 0 0 18.54 6.59c9.41 3.09 19.2 5.89 29.56 8.85 19.87 5.69 42.4 12.13 66.32 22.06 9.11 3.79 18.39 7.8 27.36 11.68 23.08 9.99 46.94 20.31 69.72 27.43 16.73 5.22 32.79 8.11 47.73 8.6 53.18 1.71 95.68-18.18 113.71-53.22l.43.41c-4.72 9.17-11.09 17.39-18.94 24.44-7.53 6.77-16.47 12.48-26.55 16.99-19.43 8.69-43.15 12.84-68.59 12.02-14.97-.48-31.07-3.38-47.83-8.62-22.81-7.12-46.68-17.45-69.77-27.44-8.97-3.88-18.25-7.89-27.35-11.68-23.9-9.92-46.42-16.36-66.28-22.04-10.36-2.96-20.15-5.77-29.57-8.86-6.21-2.06-12.45-4.28-18.57-6.6-28.35-10.82-51.42-22.71-72.59-37.42-29.52-20.5-57.35-45.04-82.71-72.93-19.53-21.48-38.92-46.71-59.28-77.132-18.23-27.232-35.68-56.106-56.29-91.083-9.94-16.888-20.1-34.41-30.85-52.962-15.83-27.291-32.19-55.513-49.82-85.074-17.44-29.293-33.9-53.76-50.32-74.802-39.45-50.569-84.105-90.023-132.731-117.274a421.57 421.57 0 0 0-51.066-24.281c-21.118-8.293-42.247-14.649-62.798-18.894-30.383-6.28-66.522-11.666-104.178-4.004-17.985 3.66-34.746 10.965-51.24 22.334-28.115 19.378-51.625 47.545-74.361 74.786-13.392 16.046-26.041 31.202-39.193 44.102-2.392 2.346-4.78 4.705-7.17 7.067-13.834 13.671-28.14 27.806-43.548 39.585-16.133 12.415-32.161 20.625-47.638 24.403-18.332 4.476-35.585 2.583-51.277-5.626-9.556-4.998-18.878-11.918-28.495-21.155-22.386-21.36-42.092-52.458-61.149-82.53-2.883-4.547-5.86-9.248-8.771-13.789-20.188-31.499-39.378-65.949-57.036-102.387-19.279-39.689-37.583-83.551-54.399-130.366-14.864-41.378-28.958-86.158-41.893-133.092l.453-.134z"/>
        <path d="M159.983 269.772c24.357 100.272 55.834 188.887 93.558 263.386 18.18 35.998 38.241 69.463 59.625 99.471l3.054 4.288c22.233 31.231 45.223 63.525 70.684 83.564 9.865 7.764 19.292 13.358 28.818 17.104 36.75 14.447 72.118-7.577 95.316-28.595 13.639-12.271 26.151-26.607 38.25-40.471 2.991-3.429 6.086-6.973 9.132-10.414 11.606-13.103 22.799-28.73 34.648-45.278 21.553-30.098 43.839-61.219 72.016-82.111 16.302-12.087 33.216-19.447 51.709-22.502 36.433-6.016 71.795 1.792 104.579 11.123 20.215 5.755 41.121 13.637 62.138 23.423a462.836 462.836 0 0 1 50.258 27.492c46.535 29.324 90.202 70.8 129.772 123.276 15.85 21.014 31.77 44.935 50.1 75.28 34.86 57.554 60.93 98.647 84.55 133.237 46.97 68.796 83.83 112.625 123.26 146.565 26.4 22.72 54.67 42.02 84.02 57.37 20.36 10.64 42.39 18.37 71.43 25.04 5.95 1.36 12.05 2.63 18.13 3.78 5.76 1.06 11.61 2.02 17.81 3.03 22.9 3.75 48.86 7.99 77.78 19.49 15.25 6.06 30.72 13.09 45.69 19.89 17.01 7.72 34.59 15.71 51.41 22.05 16.86 6.35 32.84 10.43 47.49 12.1 52.37 6 95.98-7.05 116.65-34.92l.43.53c-5.36 7.24-12.26 13.56-20.5 18.78-7.96 5.04-17.2 9.08-27.47 12.02-19.95 5.71-43.84 7.2-69.09 4.31-14.68-1.69-30.69-5.77-47.6-12.14-16.83-6.34-34.42-14.33-51.44-22.06-14.96-6.8-30.42-13.83-45.66-19.89-28.87-11.47-54.8-15.71-77.67-19.45-6.21-1.01-12.07-1.97-17.82-3.04-6.1-1.14-12.2-2.42-18.16-3.77-29.08-6.69-51.15-14.43-71.55-25.1-29.4-15.37-57.7-34.69-84.14-57.45-39.48-33.98-76.39-77.858-123.4-146.713-23.62-34.603-49.7-75.708-84.57-133.278-18.32-30.322-34.22-54.217-50.05-75.208-39.52-52.403-83.121-93.82-129.586-123.1a462.868 462.868 0 0 0-50.193-27.456c-20.993-9.774-41.872-17.646-62.062-23.395-32.734-9.317-68.035-17.115-104.384-11.113-18.425 3.042-35.28 10.379-51.525 22.423-28.116 20.848-50.379 51.936-71.909 82.001-11.857 16.558-23.057 32.198-34.681 45.32-3.046 3.437-6.14 6.981-9.131 10.411-12.108 13.876-24.629 28.222-38.292 40.514-15.138 13.717-30.452 23.352-45.517 28.64-17.645 6.194-34.557 6.199-50.257.032-9.58-3.766-19.056-9.39-28.967-17.191-25.546-20.107-48.569-52.445-70.833-83.722-1.019-1.432-2.038-2.864-3.054-4.288-21.408-30.042-41.493-63.547-59.694-99.586-37.755-74.564-69.257-163.248-93.631-263.59l.529-.109z"/>
        <path d="M808.774 517.345c1.383.502 2.745.999 4.085 1.495 19.914 7.337 40.613 16.849 61.515 28.275a512.526 512.526 0 0 1 49.481 31.035c22.58 16.02 44.859 35.35 66.222 57.455 20.633 21.346 41.043 45.939 60.673 73.099 19.24 26.611 36.81 54.859 49.96 76.497 30.8 50.525 60.61 94.234 88.62 129.916 45.35 57.789 87.08 98.133 131.33 126.953 26.69 17.39 55.8 32.02 84.28 42.35.44.16.87.32 1.32.48 24.47 8.77 48.35 11.59 70.51 13.33 5.76.44 11.74.8 17.76 1.08 3.31.14 6.62.25 10.12.36 24.7.81 52.69 1.73 85.36 14.35 19.89 7.68 39.96 17.62 59.37 27.24 12.53 6.21 25.48 12.63 37.91 18.18 17.09 7.63 33.01 12.95 47.33 15.82 51.57 10.33 96.33 4.04 119.75-16.82l.41.67c-12.02 10.7-29 17.57-50.49 20.43-20.51 2.73-44.61 1.52-69.68-3.5-14.36-2.88-30.32-8.21-47.45-15.86-12.44-5.55-25.4-11.98-37.94-18.19-19.39-9.61-39.45-19.55-59.32-27.22-32.57-12.59-60.52-13.5-85.18-14.31-3.51-.12-6.82-.23-10.12-.37-6.03-.27-12.01-.64-17.78-1.08-22.2-1.74-46.12-4.56-70.65-13.36-28.94-10.37-58.58-25.2-85.73-42.89-22.83-14.88-44.6-32.48-66.53-53.802-21.13-20.539-42.38-44.524-64.99-73.328-28.02-35.709-57.86-79.452-88.68-130.009-13.14-21.624-30.7-49.852-49.91-76.433-39.84-55.113-82.469-98.973-126.714-130.366a511.706 511.706 0 0 0-49.413-30.995c-20.876-11.41-41.545-20.912-61.432-28.235-31.119-11.461-67.427-23.289-104.752-18.548-18.892 2.4-35.859 9.778-51.873 22.553-28.122 22.438-49.049 56.741-69.291 89.916-10.412 17.064-20.245 33.184-30.446 46.524-3.267 4.274-6.578 8.697-9.779 12.976-10.817 14.455-22.001 29.399-34.397 42.466-14.182 15.061-28.805 26.145-43.458 32.946-16.99 7.883-33.581 9.723-49.313 5.465-9.711-2.627-19.36-7.046-29.5-13.513-27.112-17.284-52.377-48.079-78.021-80.791-22.36-28.522-43.972-62.367-62.501-97.877-20.589-39.354-39.097-83.474-55.005-131.129-14.173-42.457-26.377-87.958-36.275-135.243l.601-.1c21.253 101.546 51.93 191.075 91.183 266.1 18.501 35.459 40.079 69.252 62.405 97.727 25.599 32.655 50.816 63.391 77.826 80.613 10.086 6.431 19.681 10.825 29.332 13.436 28.907 7.819 61.684-5.771 92.29-38.275 12.373-13.043 23.547-27.975 34.355-42.414 3.201-4.282 6.515-8.707 9.783-12.981 10.182-13.315 20.008-29.421 30.408-46.471 9.932-16.277 20.201-33.111 31.554-48.755 12.87-17.735 25.255-31.247 37.865-41.311 16.085-12.832 33.128-20.243 52.109-22.655 16.74-2.128 34.35-1.157 53.835 2.959 16.5 3.499 32.843 8.971 47.068 14.135z"/>
        <path d="M768.861 502.208c12.574 4.589 24.544 9.925 35.24 14.809 19.666 8.978 40.173 20.202 60.947 33.359A570.814 570.814 0 0 1 913.8 585.18c42.549 33.867 83.162 79.215 124.16 138.628 17.88 25.907 34.44 52.808 49.87 78.136 30.48 49.896 61.7 92.728 92.79 127.312 45.73 50.862 90.07 85.214 139.53 108.094 28.18 13.04 58.36 22.93 87.26 28.6 24.19 4.75 47.67 3.47 69.65 1.77 5.5-.44 11.36-.98 17.41-1.59 1.51-.16 3.04-.33 4.58-.49 25.41-2.73 54.15-5.82 89.08 6.93.59.21 1.18.43 1.77.66 23.6 8.92 47.24 21.9 70.11 34.46 9.06 4.98 18.44 10.12 27.46 14.81 17.63 9.16 33.07 15.6 47.21 19.69 51.43 14.85 96.25 15.38 122.96 1.42l.33.82c-13.2 6.9-31.54 10.38-53.01 10.07-21.12-.3-45.44-4.27-70.34-11.46-14.18-4.09-29.66-10.55-47.32-19.73-9.04-4.69-18.41-9.84-27.48-14.82-22.84-12.54-46.46-25.51-70.02-34.42-35.61-13.47-64.82-10.32-90.59-7.55-1.55.17-3.07.33-4.59.49-6.05.62-11.91 1.15-17.42 1.59-22.01 1.71-45.54 2.98-69.79-1.78-28.95-5.68-59.17-15.58-87.4-28.64-24.51-11.34-47.51-25.38-70.29-42.929-23.47-18.069-46.2-39.447-69.5-65.362-31.13-34.63-62.39-77.514-92.9-127.46-15.42-25.32-31.97-52.204-49.84-78.087-40.943-59.332-81.494-104.613-123.974-138.426a570.456 570.456 0 0 0-48.683-34.754c-20.746-13.14-41.223-24.349-60.861-33.311-33.045-15.084-68.386-29.536-105.203-26.245-19.373 1.734-36.465 9.159-52.25 22.704-28.122 24.124-48.488 63.597-66.459 98.423-9.04 17.524-17.581 34.074-26.45 47.604-3.2 4.881-6.439 9.951-9.572 14.854-9.798 15.341-19.93 31.203-31.374 45.294-13.257 16.442-27.194 29.006-41.423 37.343-16.344 9.573-32.629 13.226-48.399 10.853-9.858-1.482-19.691-4.733-30.057-9.93-28.963-14.526-56.644-44.173-82.244-74.05-23.639-27.586-46.247-61.026-65.387-96.707-21.301-39.601-39.966-84.301-55.476-132.852-13.867-43.418-25.175-89.725-33.607-137.644l.667-.072c17.923 101.856 48.686 195.272 88.961 270.15 19.101 35.613 41.669 68.99 65.26 96.521 25.538 29.807 53.148 59.38 81.99 73.846 10.305 5.167 20.077 8.396 29.871 9.871 29.119 4.381 60.843-12.663 89.328-47.995 11.423-14.061 21.542-29.908 31.331-45.233 3.133-4.906 6.373-9.976 9.575-14.863 8.85-13.498 17.381-30.033 26.415-47.537 18-34.879 38.399-74.416 66.613-98.621 15.873-13.617 33.06-21.084 52.542-22.83 16.906-1.511 34.712.54 54.439 6.279 5.336 1.534 10.622 3.301 15.808 5.194z"/>
        <path d="m743.814 490.174.538.197c17.776 6.587 34.921 15.701 50.961 24.473 19.463 10.643 39.778 23.601 60.386 38.509a638.697 638.697 0 0 1 48.028 38.622c40.506 35.913 79.093 82.573 121.443 146.848 15.25 23.143 30.07 47.478 44.41 71.008 1.8 2.945 3.59 5.888 5.39 8.831 30.69 50.174 63.31 92.16 96.97 124.787 46.08 44.675 94.41 73.861 147.74 89.221 29.25 8.42 59.99 13.37 88.92 14.31 22.83.74 43.78-3.82 68.8-9.86 5.07-1.24 10.49-2.6 17.05-4.28l.37-.09c12.66-3.29 27.02-7.01 42.76-8.07 18.07-1.22 35.18 1.29 52.28 7.61 26.67 9.89 53.18 26.05 78.82 41.68 6.28 3.83 12.78 7.79 19.06 11.53 18.01 10.69 33.42 18.41 47.09 23.59 50.36 19.07 96.36 26.3 126.2 19.83l.23.94c-14.62 3.17-33.83 3.05-55.54-.35-21.76-3.41-46.31-10.16-71-19.51-13.72-5.19-29.16-12.93-47.21-23.65-6.29-3.73-12.79-7.69-19.07-11.52-25.6-15.62-52.08-31.76-78.68-41.62-.12-.04-.24-.09-.36-.13-38.07-13.98-69.26-5.89-94.34.61l-.36.09c-6.57 1.68-11.99 3.04-17.06 4.28-25.06 6.05-46.05 10.62-68.95 9.88-28.98-.95-59.78-5.91-89.07-14.34-26.1-7.52-50.32-17.99-74.06-32.03-25.57-15.129-49.79-33.9-74.02-57.391-33.72-32.689-66.4-74.743-97.14-124.999-1.79-2.943-3.59-5.889-5.38-8.834-14.34-23.522-29.16-47.849-44.39-70.974-42.295-64.195-80.826-110.789-121.264-146.642a637.803 637.803 0 0 0-47.96-38.568c-20.579-14.888-40.865-27.826-60.297-38.45-34.805-19.038-69.08-35.964-105.667-34.024-19.856 1.055-37.073 8.529-52.63 22.856-28.105 25.88-46.853 69.159-63.396 107.345-7.744 17.878-15.059 34.766-22.681 48.416-2.933 5.252-5.898 10.709-8.764 15.989-8.964 16.506-18.232 33.571-28.949 48.936-12.354 17.844-25.606 31.907-39.383 41.798-15.706 11.27-31.681 16.745-47.483 16.268-9.798-.297-19.599-2.288-29.939-6.086-.225-.083-.45-.165-.676-.252-32.121-12.015-63.091-42.289-86.484-67.322-24.92-26.669-48.535-59.727-68.29-95.603-22.02-39.881-40.846-85.193-55.956-134.681-13.558-44.409-23.971-91.558-30.944-140.143l.735-.039c10.377 72.29 33.856 178.574 86.755 274.387 19.709 35.795 43.268 68.775 68.128 95.381 23.325 24.962 54.199 55.147 86.165 67.103 10.526 3.946 20.47 5.995 30.415 6.295 29.277.883 59.95-19.643 86.369-57.798 10.692-15.329 19.95-32.376 28.904-48.863 2.867-5.283 5.834-10.743 8.767-15.998 7.603-13.615 14.91-30.48 22.644-48.339 16.572-38.256 35.355-81.617 63.57-107.597 15.661-14.424 32.994-21.948 52.984-23.007 16.942-.895 34.781 2.193 54.511 9.44z"/>
        <path d="M723.89 478.723a183.538 183.538 0 0 1 11.708 4.812c17.399 7.837 33.994 18.178 50.875 28.975 19.57 12.516 39.141 26.815 59.833 43.715a716.782 716.782 0 0 1 47.311 42.491c38.129 37.419 74.746 85.284 118.723 155.197 10.93 17.362 21.77 35.346 32.26 52.74 5.71 9.467 11.62 19.258 17.48 28.855 31.11 50.828 65.15 91.978 101.16 122.311 47.59 40.08 98.61 63.071 155.98 70.281 30.3 3.8 61.63 3.78 90.59-.07 23.26-3.09 44.21-11.76 66.4-20.95l1.53-.63c3.47-1.44 6.98-2.91 10.52-4.39 2.05-.86 4.1-1.72 6.18-2.589 12.95-5.46 26.89-10.995 42.44-13.476 18.04-2.879 35.36-1.172 52.96 5.22 29.28 10.645 58.16 30.155 86.07 49.025 3.99 2.7 8.11 5.48 12.11 8.16 18.78 12.56 33.71 21.31 47 27.55 49.05 23.04 96.24 37.05 129.48 38.43l.09 1.04c-33.32-1.38-80.61-15.41-129.75-38.5-13.33-6.26-28.3-15.03-47.1-27.61-4.01-2.68-8.13-5.46-12.12-8.16-27.58-18.64-56.08-37.91-84.96-48.592-.31-.115-.62-.23-.94-.343-37.38-13.583-66.23-3.847-94.93 8.245-2.08.87-4.14 1.73-6.18 2.59-3.55 1.49-7.05 2.95-10.52 4.4l-1.54.63c-22.22 9.2-43.21 17.89-66.55 20.99-29 3.86-60.39 3.88-90.75.07-57.51-7.23-108.67-30.283-156.38-70.472-36.11-30.411-70.22-71.654-101.41-122.595-5.86-9.599-11.76-19.388-17.47-28.858-10.49-17.389-21.33-35.369-32.25-52.719-43.925-69.833-80.491-117.631-118.553-154.986a715.486 715.486 0 0 0-47.243-42.428c-20.661-16.876-40.204-31.155-59.745-43.651-29.662-18.971-66.578-42.584-106.146-41.881-20.343.359-37.683 7.885-53.012 23.01-28.079 27.702-45.088 74.982-60.096 116.692-6.52 18.12-12.677 35.236-19.138 48.941-2.517 5.341-5.063 10.885-7.523 16.249-8.256 17.988-16.793 36.587-26.95 53.522-11.477 19.272-24.04 34.852-37.342 46.309-15.072 12.982-30.739 20.29-46.565 21.724-10.156.921-20.353.032-31.174-2.717-14.492-3.681-29.518-11.034-45.94-22.469-13.894-9.679-28.547-22.146-44.798-38.119-26.208-25.759-50.829-58.454-71.203-94.547-22.744-40.182-41.734-86.138-56.445-136.587-13.248-45.428-22.765-93.443-28.287-142.715l.804.002c11.659 104.023 41.69 203.027 84.561 278.771 20.318 35.996 44.871 68.597 71.002 94.281 35.013 34.413 63.719 53.594 90.349 60.36 10.749 2.732 20.874 3.614 30.96 2.702 37.652-3.408 66.141-38.698 83.41-67.7 10.132-16.893 18.659-35.47 26.904-53.437 2.463-5.366 5.009-10.914 7.526-16.257 6.441-13.664 12.592-30.76 19.103-48.858 15.04-41.801 32.085-89.179 60.293-117.007 15.45-15.244 32.929-22.831 53.434-23.194 13.898-.246 28.378 2.452 43.964 8.217z"/>
        <path d="M706.602 467.398c26.141 9.74 50.307 27.493 70.981 42.679 19.451 14.286 38.843 30.308 59.287 48.979a804.604 804.604 0 0 1 46.597 46.402c44.33 47.898 81.964 106.962 116.028 163.656 6.955 11.575 13.965 23.446 20.735 34.924 9.4 15.939 19.13 32.419 28.93 48.461 31.64 51.666 67.09 91.996 105.36 119.867 49.52 36.054 103.24 52.814 164.22 51.234 31.41-.81 63.31-5.85 92.27-14.56 22.33-6.71 41.92-18.396 62.65-30.768 1.47-.875 2.95-1.756 4.43-2.634l.8-.48c5.04-3.012 10.26-6.125 15.53-9.232 12.66-7.498 26.51-14.97 41.97-18.856 17.96-4.512 35.43-3.589 53.42 2.825 31.58 11.254 62.43 34.293 92.27 56.575 2.09 1.56 4.17 3.11 6.24 4.66 19.68 14.65 34.15 24.38 46.9 31.55 47.41 26.63 95.8 47.49 132.78 57.21l-.05 1.1c-37.04-9.73-85.5-30.62-132.97-57.29-12.79-7.18-27.29-16.93-47-31.62-2.08-1.54-4.16-3.09-6.25-4.66-29.78-22.233-60.57-45.222-92.03-56.44-39.07-13.926-69.43.949-94.82 15.985-5.28 3.108-10.49 6.221-15.53 9.23l-.8.48c-1.49.881-2.96 1.759-4.43 2.634-20.77 12.393-40.39 24.101-62.8 30.841-29.01 8.72-60.97 13.76-92.43 14.58-28.91.74-55.61-2.55-81.62-10.08-29-8.4-56.96-22.298-83.08-41.321-38.4-27.959-73.96-68.405-105.68-120.214-9.81-16.05-19.54-32.535-28.95-48.478-6.77-11.478-13.77-23.344-20.723-34.915-34.029-56.633-71.617-115.632-115.867-163.441a803.554 803.554 0 0 0-46.53-46.335c-20.413-18.644-39.775-34.642-59.197-48.907-29.821-21.904-66.934-49.166-106.633-49.823-20.832-.343-38.298 7.236-53.397 23.169-28.046 29.602-43.193 81.068-56.557 126.478-5.371 18.245-10.442 35.478-15.825 49.176a2163.154 2163.154 0 0 0-5.96 15.395c-7.635 19.861-15.53 40.401-25.267 59.289-10.615 20.732-22.49 37.854-35.293 50.886-14.445 14.706-29.803 23.866-45.648 27.225-10.29 2.181-20.668 2.484-31.734.927-14.907-2.1-31.011-8.216-47.866-18.18-14.76-8.726-30.618-20.717-47.133-35.644-27.496-24.854-53.13-57.192-74.131-93.518-23.471-40.503-42.63-87.116-56.943-138.551-12.931-46.466-21.555-95.368-25.628-145.344l.868.046c8.631 105.896 37.885 206.494 82.374 283.262 20.934 36.208 46.482 68.44 73.885 93.21 35.522 32.107 66.447 49.641 94.541 53.595 10.985 1.547 21.29 1.246 31.506-.917 37.699-7.993 64.558-46.669 80.451-77.711 9.713-18.839 17.598-39.351 25.222-59.187a2304.42 2304.42 0 0 1 5.964-15.404c5.365-13.652 10.431-30.861 15.793-49.084 6.43-21.846 13.716-46.606 22.734-69.004 10.332-25.663 21.465-44.588 34.035-57.858 7.27-7.672 15.281-13.522 23.814-17.388 9.177-4.157 19.296-6.176 30.078-5.997 12.336.202 24.421 2.957 36.109 7.311z"/>
        <path d="M690.977 456.026c8.651 3.247 17.593 7.704 26.925 13.404 18.38 11.224 35.566 25.523 50.731 38.134 19.114 15.899 38.88 34.17 58.746 54.304a902.257 902.257 0 0 1 45.888 50.359c41.786 49.477 76.049 107.268 113.335 172.219 3.313 5.772 6.676 11.654 9.927 17.344 12.801 22.398 26.041 45.557 39.671 67.863 32.23 52.625 69.1 92.137 109.58 117.439 51.07 31.918 109.1 42.708 172.48 32.058 32.52-5.46 65-15.54 93.93-29.164 21.78-10.256 40.43-24.986 60.18-40.583 2-1.585 4.02-3.174 6.04-4.768 5.04-3.975 10.47-8.234 15.98-12.47 11.56-8.924 25.53-18.793 41.5-24.289 17.88-6.154 35.5-6.023 53.88.405 33.63 11.762 66.17 38.496 97.64 64.349l1.2.983c15.41 12.655 31.75 25.73 46.81 35.597 45.91 30.08 94.25 57.14 136.1 76.2l-.18 1.14c-41.91-19.08-90.29-46.16-136.24-76.27-15.1-9.9-31.47-22.994-46.9-35.668l-1.2-.983c-31.4-25.795-63.88-52.468-97.35-64.175-38.65-13.521-68.36 3.44-94.7 23.785-5.51 4.233-10.93 8.494-15.97 12.466-2.03 1.591-4.04 3.183-6.05 4.765-19.78 15.623-38.46 30.379-60.31 40.669-28.98 13.651-61.53 23.751-94.11 29.221-29.73 5-58.47 5.34-85.41 1.02-30.78-4.93-60.26-16.1-87.62-33.202-40.64-25.399-77.64-65.053-109.98-117.857-13.64-22.327-26.89-45.495-39.699-67.905a9996.95 9996.95 0 0 0-9.927-17.34c-37.249-64.89-71.475-122.618-113.186-172.008a902.219 902.219 0 0 0-45.822-50.287c-19.837-20.103-39.571-38.346-58.656-54.221-29.918-24.887-67.152-55.855-107.135-57.848-21.327-1.062-38.918 6.568-53.782 23.331-28.006 31.581-41.738 89.874-52.774 136.714-4.298 18.245-8.356 35.477-12.744 49.096-1.382 4.294-2.79 8.724-4.15 13.01-7.066 22.264-14.376 45.288-23.829 66.657-14.632 33.283-40.034 75.619-77.964 88.299-10.473 3.501-21.038 5.007-32.295 4.604-29.469-.917-62.871-16.74-99.272-47.02-28.789-23.949-55.439-55.938-77.068-92.51-24.202-40.834-43.531-88.125-57.447-140.568-6.384-24.053-11.586-49.139-15.468-74.559a743.83 743.83 0 0 1-7.498-73.463l.936.099c5.584 107.802 34.063 210.028 80.19 287.85 21.55 36.436 48.098 68.302 76.775 92.16 36.232 30.143 69.454 45.888 98.738 46.8 11.175.402 21.658-1.093 32.054-4.568 37.669-12.59 62.928-54.715 77.487-87.835 9.431-21.312 16.727-44.305 23.787-66.54 1.36-4.286 2.766-8.719 4.151-13.015 4.372-13.573 8.427-30.781 12.717-49 5.553-23.57 11.846-50.285 20.158-74.607 9.552-27.949 20.295-48.416 32.844-62.568 7.16-8.073 15.148-14.149 23.741-18.058 9.256-4.213 19.557-6.071 30.611-5.518 9.703.48 19.647 2.635 30.004 6.523z"/>
        <path d="M676.526 444.634c10.378 3.925 21.13 9.757 32.434 17.572 18.318 12.658 35.505 28.666 50.669 42.792 19.09 17.782 38.674 37.86 58.206 59.679a1009.922 1009.922 0 0 1 45.183 54.355c39.44 50.971 71.571 109.592 105.59 171.649 1.684 3.071 3.367 6.145 5.055 9.22 15.823 28.835 32.187 58.653 49.547 87.056 32.85 53.659 71.14 92.356 113.79 115.013 53.58 28.47 114.4 32.75 180.76 12.75 33.19-10.01 67.14-25.611 95.6-43.926 21.49-13.828 39.49-31.721 58.56-50.667 2.26-2.243 4.52-4.493 6.8-6.744 4.55-4.507 9.97-9.844 15.62-15.262 10.46-10.069 24.58-22.553 41.02-29.745 17.81-7.793 35.58-8.475 54.34-2.078 15.41 5.326 32.02 14.718 50.77 28.717 16.1 12.017 31.46 25.572 48.43 40.765 15.48 13.962 31.84 28.523 46.73 39.687 44.11 33.073 91.02 65.163 139.44 95.393l-.32 1.16c-48.44-30.25-95.39-62.36-139.52-95.449-14.93-11.195-31.31-25.778-46.81-39.754-28.44-25.469-63.84-57.173-98.83-69.262-40.03-13.646-69.12 7.15-94.58 31.657-5.65 5.413-11.06 10.748-15.61 15.252-2.28 2.251-4.55 4.502-6.8 6.742-19.1 18.976-37.14 36.9-58.69 50.773-28.52 18.352-62.53 33.981-95.79 44.011-66.56 20.06-127.59 15.75-181.37-12.82-20.62-10.959-40.42-25.774-58.83-44.034-19.76-19.591-38.42-43.64-55.46-71.471-17.38-28.433-33.752-58.268-49.583-87.122-1.688-3.079-3.374-6.15-5.057-9.221-33.987-62.003-66.091-120.568-105.454-171.441a1007.063 1007.063 0 0 0-45.117-54.276c-19.505-21.786-39.058-41.835-58.121-59.59-29.959-27.905-67.246-62.633-107.645-65.954-21.883-1.799-39.604 5.886-54.169 23.493-28.017 33.555-39.508 96.656-48.743 147.356-3.303 18.133-6.423 35.26-9.898 48.749-.717 2.783-1.436 5.582-2.157 8.396-6.515 25.419-13.253 51.706-22.567 76.322-13.328 35.433-37.154 81.302-74.981 98.603-10.552 4.828-21.299 7.547-32.857 8.316-16.071 1.131-33.473-2.063-51.723-9.486-16.661-6.777-34.1-17.1-51.829-30.679-30.08-23.034-57.748-54.677-80.011-91.504-24.938-41.174-44.438-89.161-57.957-142.622-6.203-24.53-11.083-50.093-14.503-75.978a694.978 694.978 0 0 1-5.798-74.762l1 .157c2.485 108.141 30.919 214.753 78.007 292.5 22.17 36.669 49.719 68.179 79.67 91.118 36.93 28.287 72.527 42.103 102.948 39.963 11.469-.763 22.134-3.462 32.604-8.252 37.566-17.182 61.259-62.819 74.52-98.076 9.289-24.551 16.017-50.799 22.523-76.185.721-2.814 1.44-5.616 2.158-8.399 3.464-13.439 6.579-30.545 9.877-48.651 9.261-50.846 20.785-114.129 48.983-147.898 7.021-8.486 14.981-14.801 23.655-18.763 9.333-4.261 19.817-5.949 31.161-5.018 8.19.68 16.53 2.62 25.13 5.873z"/>
        <path d="M662.89 433.175c11.836 4.511 24.104 11.707 37.07 21.71 18.345 14.151 35.49 31.868 50.613 47.495 19.113 19.75 38.517 41.658 57.675 65.107a1124.806 1124.806 0 0 1 44.479 58.39c34.76 48.861 63.037 103.266 92.975 160.868a8925.29 8925.29 0 0 0 14.984 28.744c17.679 33.706 32.861 61.729 49.484 88.924 33.51 54.746 73.22 92.626 118.02 112.587 56.31 25.09 119.92 22.82 189.06-6.74 34.34-14.681 68.89-35.567 97.27-58.808 21.38-17.51 38.95-38.745 57.55-61.226 2.3-2.785 4.62-5.579 6.94-8.373 4.14-4.986 9.62-11.549 15.25-18.078 23.7-27.56 53.57-53.85 95.36-39.849 1.3.441 2.61.912 3.9 1.408 32.47 12.375 63.79 41.232 95.65 72.27l1.99 1.946c15.78 15.454 30.68 30.05 44.66 41.87 52.7 44.546 103.99 84.74 142.79 114.78l-.43 1.17c-38.81-30.05-90.12-70.253-142.84-114.816-14.02-11.851-28.94-26.466-44.73-41.938l-1.99-1.945c-33.03-32.175-65.47-62.009-99.12-73.404-41.32-13.844-70.94 12.25-94.46 39.603-5.63 6.523-11.1 13.082-15.25 18.065-2.32 2.797-4.63 5.589-6.94 8.374-18.62 22.515-36.22 43.786-57.67 61.351-28.44 23.291-63.05 44.219-97.47 58.93-31.94 13.66-63.24 21.57-93.03 23.5-34.18 2.23-66.71-3.42-96.69-16.77-45.04-20.071-84.95-58.138-118.61-113.141-16.646-27.236-31.844-55.288-49.54-89.023-5.032-9.594-10.093-19.332-14.989-28.75-29.908-57.544-58.158-111.896-92.851-160.66a1120.951 1120.951 0 0 0-44.413-58.306c-19.13-23.419-38.505-45.293-57.59-65.013-29.96-30.958-67.246-69.486-108.168-74.136-22.368-2.541-40.215 5.199-54.557 23.66-27.962 35.727-37.104 103.824-44.449 158.541-2.397 17.852-4.662 34.717-7.304 47.994l-.061.303c-5.92 29.729-12.044 60.468-21.397 89.536-8.122 25.367-17.911 47.225-29.093 64.975-12.608 20.011-27.04 34.83-42.898 44.05-10.608 6.169-21.539 10.116-33.416 12.063-32.1 5.36-69.392-6.137-107.845-33.255-15.475-10.913-30.452-24.218-44.521-39.544-14.149-15.416-27.085-32.567-38.449-50.97-25.679-41.524-45.352-90.211-58.47-144.709-11.792-48.985-17.89-102.06-17.633-153.485l1.064.22c-.551 110.063 27.086 218.391 75.826 297.207 22.788 36.9 51.342 68.051 82.571 90.071 38.235 26.963 75.291 38.399 107.167 33.075 11.784-1.934 22.627-5.849 33.154-11.968 29.606-17.215 54.346-54.711 71.55-108.432 9.329-28.992 15.442-59.689 21.355-89.375l.06-.304c2.635-13.227 4.896-30.067 7.291-47.895 7.369-54.883 16.539-123.186 44.698-159.163 6.914-8.903 14.852-15.45 23.587-19.46 9.42-4.324 20.084-5.845 31.703-4.528 6.919.789 13.945 2.539 21.128 5.277z"/>
        <path d="M1593.91 782.473c14.54 5.584 29.96 15.253 47 29.444 16.94 14.1 33.36 30.896 48.59 46.944 2.76 2.916 5.49 5.82 8.21 8.704 13.51 14.357 26.28 27.918 38.36 39.301 48.17 45.378 94.24 87.23 138.79 127.704l7.38 6.7-.54 1.18-7.38-6.71c-44.56-40.477-90.63-82.332-138.81-127.721-12.11-11.412-24.89-24.989-38.43-39.365-2.71-2.883-5.45-5.787-8.2-8.699-31.26-32.943-64.69-66.07-99.42-77.603-42.71-14.069-72.86 18.068-94.36 47.635-5.5 7.558-10.84 15.148-14.88 20.915a3623.76 3623.76 0 0 0-6.64 9.528c-18.31 26.288-35.61 51.119-57.09 72.544-28.36 28.273-63.57 54.563-99.15 74.016-33.02 18.05-65.61 29.82-96.87 34.96-35.86 5.91-69.91 3.04-101.22-8.52-47.12-17.18-88.5-54.462-122.954-110.797-19.097-31.256-35.742-63.525-49.509-90.972-7.49-14.936-14.947-30.161-22.161-44.885-25.532-52.126-51.934-106.024-83.013-153.402a1243.41 1243.41 0 0 0-43.715-62.392c-18.721-24.999-37.919-48.72-57.066-70.506-29.928-34.051-67.172-76.429-108.703-82.42-22.859-3.297-40.833 4.499-54.951 23.833-27.904 38.012-34.552 111.341-39.892 170.263-1.58 17.423-3.07 33.884-4.962 46.87-4.262 29.275-9.536 63.176-18.186 95.042-7.306 27.011-16.394 50.495-27.01 69.8-12.01 21.837-26.135 38.586-41.983 49.785-10.5 7.421-21.934 12.752-33.978 15.849-17.192 4.455-35.895 4.223-55.595-.692-18.447-4.602-37.474-13.217-56.551-25.601-16.09-10.446-31.644-23.436-46.233-38.615-14.68-15.272-28.041-32.408-39.709-50.927-13.455-21.331-25.37-44.996-35.414-70.336-9.518-24.01-17.45-49.757-23.579-76.524-11.467-50.076-16.639-104.124-14.96-156.291l1.128.286c-3.605 112.026 23.239 222.111 73.649 302.03 23.083 36.633 53.441 68.264 85.487 89.069 39.624 25.723 78.146 34.764 111.401 26.148 11.949-3.072 23.29-8.363 33.708-15.724 29.861-21.1 52.933-61.112 68.571-118.933 8.629-31.779 13.891-65.622 18.145-94.851 1.885-12.94 3.375-29.374 4.95-46.777 2.636-29.067 5.623-62.015 11.478-92.726 6.795-35.637 16.171-61.232 28.665-78.25 6.806-9.323 14.721-16.11 23.521-20.172 9.504-4.388 20.356-5.742 32.25-4.025 6.001.865 11.912 2.482 17.718 4.712 34.769 13.355 65.929 48.812 91.694 78.128 19.174 21.819 38.403 45.575 57.148 70.609a1245.857 1245.857 0 0 1 43.778 62.481c31.142 47.476 57.572 101.43 83.129 153.605 7.212 14.72 14.667 29.941 22.153 44.869 13.747 27.413 30.369 59.637 49.431 90.834 34.27 56.033 75.4 93.095 122.27 110.185 73.55 27.17 147.93.65 197.37-26.39 35.52-19.417 70.66-45.649 98.95-73.867 21.42-21.361 38.69-46.152 56.97-72.398 2.21-3.172 4.42-6.35 6.65-9.53 4.04-5.77 9.38-13.365 14.89-20.932 9.02-12.412 22.99-30.159 40.07-40.926 8.29-5.228 16.86-8.548 25.47-9.869 9.61-1.472 19.63-.521 29.8 2.83 1.44.471 2.89.988 4.34 1.545z"/>
        <path d="M1596.16 734.36c14.59 5.694 29.99 15.783 46.92 30.709 17.53 15.452 34.48 34.173 48.75 50.45 4.38 5.008 8.75 10.056 12.97 14.939 11.81 13.647 22.97 26.542 33.6 37.664 38.19 39.945 76.17 79.217 112.91 117.2 12.15 12.563 24.71 25.548 36.89 38.158l-.64 1.19a84628.03 84628.03 0 0 0-36.89-38.162c-36.74-37.982-74.73-77.26-112.91-117.209-10.67-11.153-21.84-24.06-33.66-37.726-4.22-4.882-8.59-9.927-12.97-14.932-29.59-33.75-64.14-70.74-99.86-82.469-43.87-14.341-73.47 22.36-94.36 55.933-5.35 8.599-10.57 17.295-14.52 23.909-2.03 3.395-4.05 6.789-6.06 10.176-18.11 30.461-35.21 59.232-56.85 84.824-28.15 33.285-64 65.113-100.94 89.623-51.41 33.913-129.01 69.463-206.7 46.283-49.42-14.63-92.33-51.384-127.512-109.255-15.807-26.01-31.092-54.861-49.563-93.555-9.335-19.554-18.523-39.631-27.409-59.042-23.119-50.505-47.022-102.729-75.289-149.565a1381.752 1381.752 0 0 0-43.092-66.968c-18.043-26.309-37.1-52.074-56.636-76.582-30.026-37.493-67.394-84.16-109.409-91.477-23.025-4.111-41.666 3.985-55.411 24.06-27.872 40.606-32.025 123.215-35.054 183.534-.85 16.928-1.653 32.916-2.869 45.592-2.701 28.173-6.834 65.096-14.897 100.87-13.947 62.001-36.165 106.051-66.037 130.919-10.477 8.779-22.113 15.418-34.579 19.736-17.736 6.159-37.115 7.394-57.599 3.668-19.298-3.513-39.15-11.324-59.008-23.22-16.749-10.113-32.902-22.898-48.014-37.997-15.26-15.249-29.069-32.48-41.047-51.214-13.848-21.65-26.019-45.76-36.17-71.662-9.622-24.548-17.515-50.898-23.463-78.327-11.162-51.493-15.43-106.843-12.342-160.064l1.191.362c-6.656 114.653 19.458 227.202 71.643 308.782 23.659 37.005 55.106 68.506 88.544 88.694 41.246 24.706 81.286 31.428 115.796 19.442 12.367-4.281 23.906-10.868 34.3-19.577 29.674-24.702 51.756-68.507 65.633-130.204 8.042-35.676 12.164-72.527 14.861-100.645 1.209-12.632 2.013-28.6 2.863-45.505 1.567-31.179 3.343-66.521 8.259-99.782 5.728-38.729 14.574-66.39 27.048-84.562 6.715-9.807 14.613-16.874 23.48-21.001 9.612-4.477 20.662-5.643 32.842-3.47 18.899 3.294 38.382 14.566 59.565 34.465 18.412 17.299 35.522 38.664 50.616 57.51 19.566 24.542 38.647 50.344 56.718 76.69a1384.598 1384.598 0 0 1 43.154 67.061c28.327 46.933 52.256 99.214 75.398 149.771 8.882 19.406 18.069 39.472 27.395 59.009 18.44 38.626 33.697 67.423 49.467 93.372 34.977 57.538 77.607 94.067 126.707 108.607 77.36 23.07 154.7-12.38 205.97-46.186 36.86-24.46 72.64-56.221 100.73-89.436 21.58-25.519 38.65-54.25 56.73-84.666 2.02-3.39 4.03-6.785 6.06-10.179 3.95-6.62 9.18-15.324 14.54-23.931 21.07-33.872 50.97-70.89 95.43-56.351a94.43 94.43 0 0 1 4.78 1.719z"/>
        <path d="M1598.28 685.373c39.97 15.825 78.44 64.023 112.54 106.753 10.49 13.129 20.38 25.531 29.88 36.466l153.45 176.608-.73 1.19-153.45-176.603c-9.52-10.962-19.43-23.38-29.93-36.527-35.42-44.381-75.58-94.685-117-108.106-44.98-14.576-74.05 26.765-94.36 64.404-6.64 12.311-13.13 24.941-19.41 37.157-17.17 33.405-34.93 67.95-56.82 97.979-17.38 23.842-38.35 47.763-60.63 69.172-24.44 23.488-50.08 43.765-76.2 60.274-28.79 18.19-57.48 31.31-85.27 39-30.73 8.5-60.28 10.29-87.84 5.32-55.21-9.95-102.39-46.7-140.214-109.244-31.436-51.972-56.549-110.792-80.834-167.676-21.14-49.514-42.999-100.709-68.991-147.367-30.024-53.889-63.223-105.795-98.677-154.272-29.871-40.845-67.047-91.683-110.127-100.621-36.382-7.55-60.37 14.996-73.329 68.935-11.023 45.879-11.822 105.164-12.466 152.798-.218 16.234-.426 31.567-1.046 43.822-3.414 67.561-11.832 121.116-25.732 163.722-8.673 26.583-19.628 49.003-32.561 66.636-14.444 19.697-31.787 34.019-51.546 42.567-17.094 7.394-35.761 10.289-55.489 8.603-18.778-1.605-38.109-7.306-57.457-16.943-38.051-18.952-73.68-52.009-100.322-93.077-14.244-21.953-26.669-46.5-36.93-72.954-9.726-25.072-17.58-52.021-23.341-80.101-10.853-52.896-14.208-109.53-9.7-163.775l1.253.439c-9.596 115.518 16.427 233.429 69.617 315.41 56.482 87.061 145.566 129.452 211.822 100.79 65.632-28.392 101.331-117.262 109.133-271.689.619-12.215.824-27.53 1.043-43.743.644-47.737 1.445-107.149 12.519-153.236 6.033-25.103 14.671-43.775 25.675-55.504 6.19-6.593 13.281-11.176 21.08-13.617 8.3-2.597 17.645-2.847 27.778-.745 4.141.859 8.311 2.118 12.51 3.781 15.301 6.058 31.055 17.492 47.807 34.652 18.873 19.333 36.49 43.422 50.646 62.777 35.501 48.546 68.746 100.521 98.813 154.488 26.053 46.758 47.933 98.013 69.096 147.579 24.254 56.811 49.336 115.558 80.693 167.399 37.577 62.116 84.427 98.626 139.257 108.506 110.91 19.98 237.92-75.863 309-173.371 21.83-29.945 39.56-64.442 56.72-97.803 6.28-12.22 12.78-24.86 19.42-37.182 13.48-24.988 25.93-41.775 39.17-52.822 8.27-6.892 16.92-11.481 25.71-13.637 9.78-2.397 20.09-1.88 30.65 1.538a91.05 91.05 0 0 1 5.12 1.85z"/>
    </g>
</svg>
