<svg width="58" height="56" viewBox="0 0 58 56" fill="none" xmlns="http://www.w3.org/2000/svg">
    <g clip-path="url(#p0z8xjdmna)">
        <path d="M28.5 10.8c3.262 0 5.906 1.88 5.906 4.2 0 2.32-2.643 4.2-5.906 4.2-3.262 0-5.906-1.88-5.906-4.2 0-2.32 2.643-4.2 5.906-4.2zm0 18c8.353 0 17.156 2.92 17.156 4.2v2.2H11.344V33c0-1.28 8.803-4.2 17.156-4.2zm0-21.8c-6.216 0-11.25 3.58-11.25 8s5.034 8 11.25 8 11.25-3.58 11.25-8-5.034-8-11.25-8zm0 18C20.99 25 6 27.68 6 33v6h45v-6c0-5.32-14.99-8-22.5-8z" fill="#0071C1"/>
    </g>
    <defs>
        <clipPath id="p0z8xjdmna">
            <path fill="#fff" d="M0 0h58v56H0z"/>
        </clipPath>
    </defs>
</svg>
